<?xml version="1.0" encoding="utf-8"?>
<!-- Generator: Adobe Illustrator 21.1.0, SVG Export Plug-In . SVG Version: 6.00 Build 0)  -->
<svg version="1.1" id="Capa_1" xmlns="http://www.w3.org/2000/svg" xmlns:xlink="http://www.w3.org/1999/xlink" x="0px" y="0px"
	 viewBox="0 0 512 512" style="enable-background:new 0 0 512 512;" xml:space="preserve">
<style type="text/css">
	.st0{fill:#DCDCDC;}
	.st1{fill:#F9F9F9;}
	.st2{fill:#FFFFFF;}
	.st3{fill:#774B9E;}
</style>
<g>
	<path class="st0" d="M128,503.5h324.2c9.4,0,17-7.7,17.1-17.1V76.8c0-9.4-7.7-17-17.1-17.1H128c-9.4,0-17,7.7-17.1,17.1v221.8
		L128,503.5z"/>
	<path class="st1" d="M126.8,503.5h301.1c9.1-0.4,16.1-8,15.8-17.1V76.8c0.3-9.1-6.8-16.7-15.8-17.1H126.8
		c-9.1,0.4-16.1,8-15.8,17.1v221.8L126.8,503.5z"/>
	<path class="st1" d="M384,469.3h42.7c4.7,0,8.5-3.8,8.5-8.5V102.4c0-4.7-3.8-8.5-8.5-8.5h-273c-4.7,0-8.5,3.8-8.5,8.5v196.3
		L384,469.3z"/>
	<path class="st0" d="M384,324.3v-93.9c0-4.7-3.8-8.5-8.5-8.5h-17.1c-4.7,0-8.5,3.8-8.5,8.5v68.3L384,324.3z"/>
	<path class="st0" d="M213.3,42.7h153.6c9.4,0,17.1,7.6,17.1,17.1v34.1c0,9.4-7.6,17.1-17.1,17.1H213.3c-9.4,0-17.1-7.6-17.1-17.1
		V59.8C196.3,50.3,203.9,42.7,213.3,42.7z"/>
	<path class="st1" d="M213.3,42.7h128c9.4,0,17.1,7.6,17.1,17.1v34.1c0,9.4-7.6,17.1-17.1,17.1h-128c-9.4,0-17.1-7.6-17.1-17.1V59.8
		C196.3,50.3,203.9,42.7,213.3,42.7z"/>
	<path class="st0" d="M221.9,153.6H239c4.7,0,8.5,3.8,8.5,8.5v153.6h-34.1V162.2C213.3,157.5,217.1,153.6,221.9,153.6z"/>
	<path class="st0" d="M290.1,187.8h17.1c4.7,0,8.5,3.8,8.5,8.5v119.5h-34.1V196.3C281.6,191.6,285.4,187.8,290.1,187.8z"/>
	<path class="st0" d="M366.9,298.8H59.7c-9.4,0-17,7.7-17.1,17.1v170.6c0,9.4,7.7,17,17.1,17.1h307.2c9.4,0,17-7.7,17.1-17.1V315.8
		C383.9,306.3,376.3,298.8,366.9,298.8z M93.9,469.3c0-9.4-7.7-17-17.1-17.1L93.9,469.3z"/>
	<path class="st1" d="M342.6,298.8H58.5c-9.1,0.4-16.1,8-15.8,17.1v170.6c-0.3,9.1,6.7,16.7,15.8,17.1h284.1
		c9.1-0.4,16.1-8,15.8-17.1V315.8C358.7,306.8,351.6,299.1,342.6,298.8z M90,469.3c0.3-9.1-6.7-16.7-15.8-17.1L90,469.3z"/>
	<path class="st1" d="M332.8,332.8H93.9c0,9.4-7.7,17-17.1,17.1v102.4c9.4,0,17,7.7,17.1,17.1h238.9c0-9.4,7.7-17,17.1-17.1V349.9
		C340.4,349.9,332.8,342.3,332.8,332.8z"/>
	<path class="st2" d="M136.5,76.8c-0.3-9.1,6.8-16.7,15.8-17.1h-25.6c-9.1,0.4-16.1,8-15.8,17.1v221.8h25.6V76.8z"/>
	<path class="st2" d="M68.3,486.4V315.8c-0.3-9.1,6.7-16.7,15.8-17.1H58.5c-9.1,0.4-16.1,8-15.8,17.1v170.6
		c-0.3,9.1,6.7,16.7,15.8,17.1h25.6C75,503.1,68,495.5,68.3,486.4z"/>
	<path class="st2" d="M34.1,486.4V315.8h17.1v170.6H34.1z"/>
	<g>
		<path class="st3" d="M452.2,51.2h-61.3c-3.6-10.2-13.2-17-24-17.1h-35C327.9,14.3,310.4,0,290.1,0s-37.8,14.3-41.8,34.2h-35
			c-10.8,0-20.4,6.9-24,17.1H128c-6.8,0-13.3,2.7-18.1,7.5c-4.8,4.8-7.5,11.3-7.5,18.1v213.3H59.7c-14.1,0-25.6,11.5-25.6,25.6V384
			c0,4.7,3.8,8.5,8.5,8.5s8.5-3.8,8.5-8.5v-68.3c0-4.7,3.8-8.5,8.5-8.5h307.2c4.7,0,8.5,3.8,8.5,8.5v170.6c0,4.7-3.8,8.5-8.5,8.5
			H59.7c-4.7,0-8.5-3.8-8.5-8.5v-34.1c0-4.7-3.8-8.5-8.5-8.5s-8.5,3.8-8.5,8.5v34.1c0,14.1,11.5,25.6,25.6,25.6h392.5
			c14.1,0,25.6-11.5,25.6-25.6V76.8C477.8,62.7,466.4,51.2,452.2,51.2z M392.5,392.5h8.5c4.7,0,8.5-3.8,8.5-8.5s-3.8-8.5-8.5-8.5
			h-8.5V230.4c0-9.4-7.6-17.1-17.1-17.1h-17.1c-9.4,0-17.1,7.6-17.1,17.1v59.7h-17.1v-93.9c0-9.4-7.6-17.1-17.1-17.1h-16.9
			c-9.4,0-17.1,7.6-17.1,17.1v93.9h-17.1v-128c0-9.4-7.6-17.1-17.1-17.1h-17.1c-9.4,0-17.1,7.6-17.1,17.1v128h-17.1V153.6
			c0-4.7-3.8-8.5-8.5-8.5s-8.5,3.8-8.5,8.5v136.5h-17.1V102.4h35.7c3.6,10.2,13.2,17,24,17.1h153.6c10.8,0,20.4-6.9,24-17.1h35.7
			v358.4h-34.1v-68.3H392.5z M290.1,17.1c10.8,0,20.4,6.9,24,17.1h-48C269.7,24,279.3,17.2,290.1,17.1z M213.3,51.2h153.6
			c4.7,0,8.5,3.8,8.5,8.5v34.1c0,4.7-3.8,8.5-8.5,8.5H213.3c-4.7,0-8.5-3.8-8.5-8.5v-34C204.8,55.1,208.6,51.2,213.3,51.2z
			 M119.5,76.8c0-4.7,3.8-8.5,8.5-8.5h59.7v17.1h-34.1c-9.4,0-17.1,7.6-17.1,17.1v187.7h-17.1V76.8H119.5z M221.9,290.3v-128H239
			v128H221.9z M290.1,290.3v-93.9h17.1v93.9H290.1z M366.9,290.3h-8.5v-59.7h17.1v61.3C372.7,290.8,369.8,290.3,366.9,290.3z
			 M460.8,486.4c0,4.7-3.8,8.5-8.5,8.5H391c1-2.7,1.5-5.6,1.6-8.5v-8.5h34.1c9.4,0,17.1-7.6,17.1-17.1V102.4
			c0-9.4-7.6-17.1-17.1-17.1h-34.1v-17h59.7c4.7,0,8.5,3.8,8.5,8.5L460.8,486.4L460.8,486.4z"/>
		<path class="st3" d="M230.4,85.4h17.1c4.7,0,8.5-3.8,8.5-8.5s-3.8-8.5-8.5-8.5h-17.1c-4.7,0-8.5,3.8-8.5,8.5
			C221.9,81.5,225.7,85.4,230.4,85.4z"/>
		<path class="st3" d="M281.6,85.4h68.3c4.7,0,8.5-3.8,8.5-8.5s-3.8-8.5-8.5-8.5h-68.3c-4.7,0-8.5,3.8-8.5,8.5
			C273.1,81.5,276.9,85.4,281.6,85.4z"/>
		<path class="st3" d="M39.4,426c0.5,0.2,1,0.4,1.5,0.5c0.6,0.1,1.1,0.2,1.7,0.2c2.3,0,4.4-0.9,6.1-2.5c0.8-0.8,1.4-1.8,1.8-2.8
			c1.3-3.2,0.6-6.8-1.8-9.3c-0.8-0.8-1.8-1.4-2.8-1.8s-2.1-0.7-3.2-0.7c-2.3,0-4.4,0.9-6.1,2.5c-3.3,3.4-3.3,8.8,0,12.1l1.3,1
			C38.4,425.5,38.9,425.8,39.4,426z"/>
		<path class="st3" d="M85.3,469.3c0,4.7,3.8,8.5,8.5,8.5h238.9c4.7,0,8.5-3.8,8.5-8.5s3.8-8.5,8.5-8.5s8.5-3.8,8.5-8.5V349.9
			c0-4.7-3.8-8.5-8.5-8.5s-8.5-3.8-8.5-8.5s-3.8-8.5-8.5-8.5H93.9c-4.7,0-8.5,3.8-8.5,8.5s-3.8,8.5-8.5,8.5s-8.5,3.8-8.5,8.5v102.4
			c0,4.7,3.8,8.5,8.5,8.5C81.5,460.8,85.3,464.6,85.3,469.3z M153.6,401.1c0-33,26.7-59.7,59.7-59.7s59.7,26.7,59.7,59.7
			s-26.7,59.7-59.7,59.7C180.4,460.8,153.6,434,153.6,401.1z M325.8,341.3c2.6,7.2,8.3,12.9,15.5,15.5v88.5
			c-7.2,2.6-12.9,8.3-15.5,15.5h-64.3c18.1-14.5,28.6-36.5,28.6-59.7s-10.5-45.2-28.6-59.7L325.8,341.3L325.8,341.3z M100.8,341.3
			h64.3c-18.1,14.5-28.6,36.5-28.6,59.7s10.5,45.2,28.6,59.7h-64.3c-2.6-7.2-8.3-12.9-15.5-15.5v-88.5
			C92.6,354.3,98.2,348.6,100.8,341.3z"/>
		<path class="st3" d="M236.2,399c-6.8-4.3-14.8-6.6-22.8-6.4c-4.7,0.1-9.3-1.1-13.4-3.6c-2.2-0.6-3.7-2.7-3.7-5s1.5-4.3,3.7-5
			c8.3-4.5,18.4-4.5,26.7,0c3.9,2.6,9.2,1.6,11.8-2.4c2.6-3.9,1.6-9.2-2.4-11.8c-4.4-2.7-9.2-4.6-14.3-5.4v-1.1
			c0-4.7-3.8-8.5-8.5-8.5s-8.5,3.8-8.5,8.5v1.1c-5.1,0.8-9.9,2.6-14.3,5.4c-7,3.9-11.3,11.2-11.3,19.2s4.3,15.3,11.3,19.2
			c6.8,4.3,14.8,6.6,22.8,6.4c4.7-0.1,9.3,1.1,13.4,3.6c2.2,0.6,3.7,2.7,3.7,5s-1.5,4.3-3.7,5c-8.3,4.5-18.4,4.5-26.7,0
			c-2.5-1.7-5.8-1.9-8.5-0.6c-2.7,1.4-4.5,4.1-4.7,7.1s1.2,6,3.8,7.7c4.3,2.8,9.2,4.7,14.3,5.6v0.9c0,4.7,3.8,8.5,8.5,8.5
			s8.5-3.8,8.5-8.5v-0.9c5.1-0.9,10-2.8,14.3-5.5c7-3.9,11.3-11.2,11.3-19.2S243.1,402.9,236.2,399L236.2,399z"/>
	</g>
</g>
</svg>
