<?xml version="1.0" encoding="utf-8"?>
<!-- Generator: Adobe Illustrator 21.1.0, SVG Export Plug-In . SVG Version: 6.00 Build 0)  -->
<svg version="1.1" id="Capa_1" xmlns="http://www.w3.org/2000/svg" xmlns:xlink="http://www.w3.org/1999/xlink" x="0px" y="0px"
	 viewBox="0 0 512 512" style="enable-background:new 0 0 512 512;" xml:space="preserve">
<style type="text/css">
	.st0{fill:#DCDCDC;}
	.st1{fill:#F9F9F9;}
	.st2{fill:#FFFFFF;}
	.st3{fill:#774B9E;}
</style>
<g>
	<g transform="translate(1 1)">
		<path class="st0" d="M502.4,195.3v51.2H7.4v-51.2c0-9.1,3.6-17.7,10-24.1s15.1-10,24.1-10h426.7c9.1,0,17.7,3.6,24.1,10
			S502.4,186.2,502.4,195.3z"/>
		<path class="st1" d="M476.8,195.3v51.2H7.4v-51.2c0-9.1,3.6-17.7,10-24.1s15.1-10,24.1-10h401.1c9.1,0,17.7,3.6,24.1,10
			S476.8,186.2,476.8,195.3z"/>
		<path class="st0" d="M502.4,229.4v238.9c0,9.1-3.6,17.7-10,24.1s-15.1,10-24.1,10H41.6c-9.1,0-17.7-3.6-24.1-10s-10-15.1-10-24.1
			V229.4H502.4L502.4,229.4z"/>
		<g>
			<path class="st1" d="M476.8,229.4v238.9c0,9.1-3.6,17.7-10,24.1s-15.1,10-24.1,10H41.6c-9.1,0-17.7-3.6-24.1-10s-10-15.1-10-24.1
				V229.4H476.8L476.8,229.4z"/>
			<path class="st1" d="M58.6,280.6h136.5c4.7,0,8.5,3.8,8.5,8.5v153.6c0,4.7-3.8,8.5-8.5,8.5H58.6c-4.7,0-8.5-3.8-8.5-8.5V289.1
				C50.1,284.4,53.9,280.6,58.6,280.6z"/>
		</g>
		<path class="st0" d="M212.2,7.5h85.3c4.7,0,8.5,3.8,8.5,8.5v170.7c0,4.7-3.8,8.5-8.5,8.5h-85.3c-4.7,0-8.5-3.8-8.5-8.5V16.1
			C203.7,11.4,207.5,7.5,212.2,7.5z"/>
		<path class="st1" d="M212.2,7.5h59.7c4.7,0,8.5,3.8,8.5,8.5v170.7c0,4.7-3.8,8.5-8.5,8.5h-59.7c-4.7,0-8.5-3.8-8.5-8.5V16.1
			C203.7,11.4,207.5,7.5,212.2,7.5z"/>
		<circle class="st0" cx="254.9" cy="144.1" r="17.1"/>
		<path class="st0" d="M189.7,451.3c-1.5-1.6-3.2-3-5.1-4.1l-34.5-19.6c-0.9-0.5-1.4-1.5-1.5-2.6v-9.2c0-0.6,0.2-1.2,0.5-1.7
			c4-4.9,6.8-10.7,8.4-16.8c0.4-2.2,1.5-4.2,3.2-5.7c2.2-2,3.4-4.9,3.4-7.9v-10.5c0-1.7-0.4-3.5-1.2-5l-0.7-1.2
			c-0.8-1.5-1.2-3.2-1.2-4.9V347c-0.2-6.4-2.9-12.5-7.5-17s-10.9-6.8-17.3-6.7h-18.6c-6.4-0.2-12.7,2.2-17.3,6.7
			c-4.7,4.4-7.4,10.5-7.5,17v15c0,1.7-0.4,3.4-1.2,4.9l-0.7,1.2c-0.8,1.6-1.2,3.3-1.2,5v10.5c0,3,1.3,5.8,3.4,7.9
			c1.6,1.5,2.7,3.5,3.2,5.7c1.5,6.1,4.4,11.9,8.4,16.8c0.3,0.5,0.5,1.1,0.5,1.7v9.2c0,1-0.6,2-1.5,2.6l-34.5,19.6
			c-1.9,1.1-3.7,2.5-5.1,4.1L189.7,451.3L189.7,451.3z"/>
	</g>
	<path class="st2" d="M42.6,503.5h25.6c-9.1,0-17.7-3.6-24.1-10s-10-15.1-10-24.1V196.3c0-9.1,3.6-17.7,10-24.1s15.1-10,24.1-10
		H42.6c-9.1,0-17.7,3.6-24.1,10s-10,15.1-10,24.1v273.1c0,9.1,3.6,17.7,10,24.1C24.8,499.9,33.5,503.5,42.6,503.5z"/>
	<g>
		<polygon class="st2" points="-0.1,469.3 -0.1,358.4 -0.1,196.3 17,196.3 17,358.4 17,469.3 		"/>
		<g>
			<path class="st3" d="M5.2,408.9c0.5,0.2,1,0.4,1.5,0.5c0.6,0.1,1.1,0.2,1.7,0.2c2.3,0,4.4-0.9,6.1-2.5c3.2-3.4,3.2-8.7,0-12.1
				c-0.8-0.8-1.8-1.4-2.8-1.8s-2.1-0.7-3.2-0.7c-2.3,0-4.4,0.9-6.1,2.5c-3.3,3.4-3.3,8.8,0,12.1l1.3,1
				C4.1,408.5,4.6,408.7,5.2,408.9z"/>
			<path class="st3" d="M469.2,153.6H315.6V17.1C315.6,7.7,308,0,298.5,0h-85.3c-9.4,0-17.1,7.6-17.1,17.1v136.5H42.6
				c-23.6,0-42.7,19.1-42.7,42.7V367c0,4.7,3.8,8.5,8.5,8.5s8.5-3.8,8.5-8.5V239h477.9v230.4c0,14.1-11.5,25.6-25.6,25.6H42.6
				C28.5,495,17,483.5,17,469.4v-34.1c0-4.7-3.8-8.5-8.5-8.5s-8.6,3.7-8.6,8.4v34.1c0,23.6,19.1,42.7,42.7,42.7h426.7
				c23.6,0,42.6-19.1,42.7-42.7v-273C511.9,172.7,492.8,153.6,469.2,153.6z M213.2,17.1h85.3v145v0.1v0.1v25.5h-85.4L213.2,17.1
				L213.2,17.1z M17,221.9v-25.6c0-14.1,11.5-25.6,25.6-25.6h153.6v17.1c0,9.4,7.6,17.1,17.1,17.1h85.3c9.4,0,17.1-7.6,17.1-17.1
				v-17.1h153.6c14.1,0,25.6,11.5,25.6,25.6v25.6H17z"/>
			<path class="st3" d="M196.2,460.8c9.4,0,17.1-7.6,17.1-17.1V290.1c0-9.4-7.6-17.1-17.1-17.1H59.6c-9.4,0-17.1,7.6-17.1,17.1
				v153.6c0,9.4,7.6,17.1,17.1,17.1L196.2,460.8L196.2,460.8z M112.4,409.9c-3.2-3.9-5.5-8.4-6.8-13.3c-0.8-3.9-2.7-7.5-5.6-10.2
				c-0.5-0.4-0.8-1-0.8-1.7v-10.5c0-0.4,0.1-0.8,0.1-0.8l0,0l0.9-1.6c1.4-2.7,2.1-5.7,2.1-8.8v-15.1c0.4-8.7,7.6-15.4,16.3-15.1
				h18.6c8.7-0.3,15.9,6.4,16.3,15.1V363c0,3.2,0.8,6.4,2.3,9.2l0.4,0.8c0.2,0.4,0.3,0.8,0.3,1.2v10.5c0,0.6-0.3,1.2-0.7,1.6
				c-2.9,2.7-4.8,6.2-5.6,10.1c-1.3,5.1-3.8,9.9-7.1,13.9c-1.3,1.9-1.9,4.1-1.9,6.4v9.2c0,4.1,2.2,7.9,5.8,10l13.7,7.8H95.2l14-8
				c3.4-2.1,5.4-5.8,5.4-9.8v-9.2C114.6,414.3,113.9,411.9,112.4,409.9z M59.6,290.1h136.5v153.6H194c-1.3-1.1-2.8-2.1-4.3-3
				l-31.6-18v-4.2c4.1-5.6,7.1-11.9,8.7-18.6c0.1-0.5,0.4-0.9,0.7-1.2c3.8-3.6,6-8.7,6-14v-10.5c0-3.2-0.8-6.4-2.3-9.3l-0.4-0.8
				c-0.2-0.4-0.3-0.7-0.3-1.1v-15.1c-0.4-18.1-15.3-32.5-33.4-32.2h-18.6c-18.1-0.3-33,14.1-33.4,32.2V363c0,0.3-0.1,0.7-0.1,0.7
				l0,0l-0.9,1.6c-1.4,2.7-2.1,5.8-2.1,8.8v10.5c0,5.3,2.2,10.4,6.1,14.1c0.4,0.4,0.6,0.8,0.7,1.3c1.6,6.7,4.5,13,8.7,18.5v4.2
				l-31.6,18c-1.5,0.9-2.9,1.9-4.3,3h-2.1C59.6,443.7,59.6,290.1,59.6,290.1z"/>
			<path class="st3" d="M264.4,409.6v42.7c0,4.7,3.8,8.5,8.5,8.5s8.5-3.8,8.5-8.5v-42.7c0-4.7-3.8-8.5-8.5-8.5
				S264.4,404.9,264.4,409.6z"/>
			<path class="st3" d="M298.6,409.6v42.7c0,4.7,3.8,8.5,8.5,8.5s8.5-3.8,8.5-8.5v-42.7c0-4.7-3.8-8.5-8.5-8.5
				S298.6,404.9,298.6,409.6z"/>
			<path class="st3" d="M341.2,401.1c-2.3,0-4.4,0.9-6,2.5s-2.5,3.8-2.5,6v42.7c0,4.7,3.8,8.5,8.5,8.5s8.5-3.8,8.5-8.5v-42.7
				c0-2.3-0.9-4.4-2.5-6C345.7,402,343.5,401.1,341.2,401.1z"/>
			<path class="st3" d="M366.8,409.6v42.7c0,4.7,3.8,8.5,8.5,8.5s8.5-3.8,8.5-8.5v-42.7c0-4.7-3.8-8.5-8.5-8.5
				C370.7,401.1,366.8,404.9,366.8,409.6z"/>
			<path class="st3" d="M401,409.6v42.7c0,4.7,3.8,8.5,8.5,8.5s8.5-3.8,8.5-8.5v-42.7c0-4.7-3.8-8.5-8.5-8.5S401,404.9,401,409.6z"
				/>
			<path class="st3" d="M443.6,401.1c-2.3,0-4.4,0.9-6,2.5s-2.5,3.8-2.5,6v42.7c0,4.7,3.8,8.5,8.5,8.5s8.5-3.8,8.5-8.5v-42.7
				c0-2.3-0.9-4.4-2.5-6C448.1,402,445.9,401.1,443.6,401.1z"/>
			<path class="st3" d="M383.9,281.6H264.4c-4.7,0-8.5,3.8-8.5,8.5s3.8,8.5,8.5,8.5h119.5c4.7,0,8.5-3.8,8.5-8.5
				S388.6,281.6,383.9,281.6z"/>
			<path class="st3" d="M443.6,298.7c4.7,0,8.5-3.8,8.5-8.5s-3.8-8.5-8.5-8.5H418c-4.7,0-8.5,3.8-8.5,8.5s3.8,8.5,8.5,8.5H443.6z"/>
			<path class="st3" d="M315.6,324.3c0,2.3,0.9,4.4,2.5,6s3.8,2.5,6,2.5h119.5c4.7,0,8.5-3.8,8.5-8.5s-3.8-8.5-8.5-8.5H324.2
				c-2.3,0-4.4,0.9-6,2.5C316.5,319.8,315.6,322,315.6,324.3z"/>
			<path class="st3" d="M264.4,332.8H290c4.7,0,8.5-3.8,8.5-8.5s-3.8-8.5-8.5-8.5h-25.6c-4.7,0-8.5,3.8-8.5,8.5
				S259.7,332.8,264.4,332.8z"/>
			<path class="st3" d="M264.4,366.9h76.8c4.7,0,8.5-3.8,8.5-8.5s-3.8-8.5-8.5-8.5h-76.8c-4.7,0-8.5,3.8-8.5,8.5
				S259.7,366.9,264.4,366.9z"/>
			<path class="st3" d="M255.9,170.7c14.1,0,25.6-11.5,25.6-25.6s-11.5-25.6-25.6-25.6s-25.6,11.5-25.6,25.6
				C230.3,159.2,241.8,170.7,255.9,170.7z M255.9,136.5c4.7,0,8.5,3.8,8.5,8.5s-3.8,8.5-8.5,8.5c-4.7,0-8.5-3.8-8.5-8.5
				C247.4,140.4,251.2,136.5,255.9,136.5z"/>
		</g>
	</g>
</g>
</svg>
