<?xml version="1.0" encoding="utf-8"?>
<!-- Generator: Adobe Illustrator 21.1.0, SVG Export Plug-In . SVG Version: 6.00 Build 0)  -->
<svg version="1.1" id="Capa_1" xmlns="http://www.w3.org/2000/svg" xmlns:xlink="http://www.w3.org/1999/xlink" x="0px" y="0px"
	 viewBox="0 0 512 512" style="enable-background:new 0 0 512 512;" xml:space="preserve">
<style type="text/css">
	.st0{fill:#DCDCDC;}
	.st1{fill:#FAFAFA;}
	.st2{fill:#D4E1F4;}
	.st3{fill:#FFFFFF;}
	.st4{fill:#774C9E;}
</style>
<g>
	<path class="st0" d="M25.6,8.5h273.1c9.4,0,17.1,7.6,17.1,17.1v460.8c0,9.4-7.6,17.1-17.1,17.1H25.6c-9.4,0-17.1-7.6-17.1-17.1
		V25.6C8.5,16.2,16.2,8.5,25.6,8.5z"/>
	<path class="st1" d="M25.6,8.5h247.5c9.4,0,17.1,7.6,17.1,17.1v460.8c0,9.4-7.6,17.1-17.1,17.1H25.6c-9.4,0-17.1-7.6-17.1-17.1
		V25.6C8.5,16.2,16.2,8.5,25.6,8.5z"/>
	<path class="st0" d="M8.5,68.3h307.2v392.5H8.5V68.3z"/>
	<path class="st1" d="M8.5,68.3h281.6v392.5H8.5V68.3z"/>
	<path class="st0" d="M315.7,68.3v8.5c-5.8,3.8-14.5,9.3-25.6,16.8V68.3H315.7z"/>
	<path class="st1" d="M486.4,246.5v-67.3c0-4.7-3.8-8.5-8.5-8.5h-239c-4.7,0-8.5,3.8-8.5,8.5v67.3l-17.1,9.5l8.5,8.5h273.1l8.5-8.5
		L486.4,246.5z"/>
	<path class="st0" d="M503.5,256v230.4c0,9.4-7.7,17-17.1,17.1h-256c-9.4,0-17-7.7-17.1-17.1V256H503.5z"/>
	<path class="st1" d="M477.9,256v230.4c0,9.4-7.7,17-17.1,17.1H230.4c-9.4,0-17-7.7-17.1-17.1V256H477.9z"/>
	<path class="st0" d="M486.4,179.2v67.3l-59.7-33.2l56.8-40.5C485.4,174.4,486.4,176.7,486.4,179.2z"/>
	<path class="st0" d="M290.1,213.3l-59.7,33.2v-67.3c0-2.5,1-4.8,2.9-6.4L290.1,213.3z"/>
	<path class="st2" d="M503.5,256h-76.8v-42.7l59.7,33.2L503.5,256z"/>
	<path class="st0" d="M290.1,213.3V256h-76.8l17.1-9.5L290.1,213.3z"/>
	<path class="st0" d="M298.7,307.2c0,9.4-7.6,17.1-17.1,17.1s-17.1-7.6-17.1-17.1s7.6-17.1,17.1-17.1S298.7,297.8,298.7,307.2z"/>
	<path class="st0" d="M452.3,307.2c0,9.4-7.6,17.1-17.1,17.1s-17.1-7.6-17.1-17.1s7.6-17.1,17.1-17.1S452.3,297.8,452.3,307.2z"/>
	<path class="st3" d="M25.6,503.5h25.6c-9.4,0-17-7.7-17.1-17.1V25.6c0-9.4,7.7-17,17.1-17.1H25.6c-9.4,0-17,7.7-17.1,17.1v460.8
		C8.6,495.8,16.2,503.4,25.6,503.5z"/>
	<path class="st3" d="M17.1,85.3v358.4H0V85.3H17.1z"/>
	<g>
		<path class="st4" d="M8.5,162.1c2.3,0,4.4-0.9,6.1-2.5c3.3-3.4,3.3-8.8,0-12.1l-1.3-1c-0.5-0.3-1-0.6-1.5-0.8s-1-0.4-1.5-0.5
			c-0.6-0.1-1.1-0.2-1.7-0.2c-2.3,0-4.4,0.9-6.1,2.5c-0.8,0.8-1.4,1.8-1.8,2.8c-1.3,3.2-0.6,6.8,1.8,9.3c0.8,0.8,1.8,1.4,2.8,1.8
			C6.3,161.9,7.4,162.1,8.5,162.1z"/>
		<path class="st4" d="M170.7,34.1h-17.1c-4.7,0-8.5,3.8-8.5,8.5s3.8,8.5,8.5,8.5h17.1c4.7,0,8.5-3.8,8.5-8.5
			C179.2,38,175.4,34.1,170.7,34.1z"/>
		<path class="st4" d="M153.6,102.4c-4.7,0-8.5,3.8-8.5,8.5v9.4c-7.1,0.8-14,3.1-20.1,6.7c-8.2,4.5-13.6,12.9-14,22.3
			c0.5,9.4,5.8,17.8,14,22.3c6.2,3.7,13,6,20.1,6.9v25.2c-3.9-0.6-7.7-1.9-11.1-3.9c-2.6-1.6-5.8-1.7-8.5-0.3s-4.4,4.2-4.5,7.3
			s1.4,5.9,4,7.5c6.2,3.7,13,6,20.1,6.9v9.1c0,4.7,3.8,8.5,8.5,8.5s8.5-3.8,8.5-8.5v-9.1c7.1-0.9,14-3.2,20.1-6.9
			c8.3-4.5,13.6-12.9,14-22.3c-0.5-9.4-5.8-17.8-14-22.3c-6.2-3.7-13-6-20.1-6.9v-25.2c3.9,0.6,7.7,1.9,11.1,3.9
			c2.6,1.6,5.8,1.7,8.5,0.3s4.4-4.2,4.5-7.3s-1.4-5.9-4-7.5c-6.2-3.6-13-5.9-20.1-6.7v-9.4C162.1,106.2,158.3,102.4,153.6,102.4z
			 M128,149.3c0.6-3.4,2.8-6.4,6-7.8c3.4-2,7.2-3.3,11.1-3.9v23.7c-3.9-0.7-7.7-2.1-11.1-4.1C130.8,155.7,128.6,152.8,128,149.3z
			 M179.2,192c-0.6,3.4-2.8,6.4-6,7.8c-3.4,2-7.2,3.3-11.1,3.9V180c3.9,0.7,7.7,2.1,11.1,4.1C176.4,185.6,178.6,188.6,179.2,192z"/>
		<path class="st4" d="M68.3,315.7h17.1c4.7,0,8.5-3.8,8.5-8.5s-3.8-8.5-8.5-8.5H68.3c-4.7,0-8.5,3.8-8.5,8.5
			C59.7,311.9,63.6,315.7,68.3,315.7z"/>
		<path class="st4" d="M119.5,315.7h42.7c4.7,0,8.5-3.8,8.5-8.5s-3.8-8.5-8.5-8.5h-42.7c-4.7,0-8.5,3.8-8.5,8.5
			C110.9,311.9,114.8,315.7,119.5,315.7z"/>
		<path class="st4" d="M68.3,349.9h17.1c4.7,0,8.5-3.8,8.5-8.5s-3.8-8.5-8.5-8.5H68.3c-4.7,0-8.5,3.8-8.5,8.5
			C59.7,346,63.6,349.9,68.3,349.9z"/>
		<path class="st4" d="M119.5,349.9h42.7c4.7,0,8.5-3.8,8.5-8.5s-3.8-8.5-8.5-8.5h-42.7c-4.7,0-8.5,3.8-8.5,8.5
			C110.9,346,114.8,349.9,119.5,349.9z"/>
		<path class="st4" d="M68.3,384h17.1c4.7,0,8.5-3.8,8.5-8.5s-3.8-8.5-8.5-8.5H68.3c-4.7,0-8.5,3.8-8.5,8.5
			C59.7,380.2,63.6,384,68.3,384z"/>
		<path class="st4" d="M119.5,384h42.7c4.7,0,8.5-3.8,8.5-8.5s-3.8-8.5-8.5-8.5h-42.7c-4.7,0-8.5,3.8-8.5,8.5
			C110.9,380.2,114.8,384,119.5,384z"/>
		<path class="st4" d="M68.3,418.1h17.1c4.7,0,8.5-3.8,8.5-8.5s-3.8-8.5-8.5-8.5H68.3c-4.7,0-8.5,3.8-8.5,8.5
			C59.7,414.3,63.6,418.1,68.3,418.1z"/>
		<path class="st4" d="M119.5,418.1h42.7c4.7,0,8.5-3.8,8.5-8.5s-3.8-8.5-8.5-8.5h-42.7c-4.7,0-8.5,3.8-8.5,8.5
			C110.9,414.3,114.8,418.1,119.5,418.1z"/>
		<path class="st4" d="M68.3,119.5c4.7,0,8.5-3.8,8.5-8.5v-8.5c0-4.7-3.8-8.5-8.5-8.5s-8.5,3.8-8.5,8.5v8.5
			C59.7,115.6,63.6,119.5,68.3,119.5z"/>
		<path class="st4" d="M59.7,204.8c0,4.7,3.8,8.5,8.5,8.5s8.5-3.8,8.5-8.5v-68.3c0-4.7-3.8-8.5-8.5-8.5s-8.5,3.8-8.5,8.5
			C59.7,136.5,59.7,204.8,59.7,204.8z"/>
		<path class="st4" d="M511.4,253.2c-0.2-0.5-0.4-1-0.7-1.4c-0.3-0.5-0.6-0.9-0.9-1.3c-0.4-0.4-0.8-0.8-1.3-1.1
			c-0.3-0.3-0.6-0.5-0.9-0.7l-12.7-7v-62.3c0-9.4-7.6-17.1-17.1-17.1H324.3V25.6c0-14.1-11.5-25.6-25.6-25.6H25.6
			C11.5,0,0,11.5,0,25.6v93.9c0,4.7,3.8,8.5,8.5,8.5s8.5-3.8,8.5-8.5V76.8h290.1v85.3h-68.3c-9.4,0-17.1,7.6-17.1,17.1v62.3l-12.7,7
			c-0.3,0.2-0.6,0.5-0.9,0.7c-0.5,0.3-0.9,0.7-1.3,1.1c-0.4,0.4-0.7,0.9-0.9,1.3c-0.3,0.4-0.5,0.9-0.7,1.4c-0.2,0.6-0.3,1.1-0.3,1.7
			c-0.1,0.4-0.2,0.7-0.2,1.1v230.4c0,2.9,0.6,5.8,1.6,8.5H25.6c-4.7,0-8.5-3.8-8.5-8.5v-17.1h162.1c4.7,0,8.5-3.8,8.5-8.5
			s-3.8-8.5-8.5-8.5H17.1V187.7c0-4.7-3.8-8.5-8.5-8.5s-8.5,3.8-8.5,8.5v298.7C0,500.5,11.5,512,25.6,512h460.8
			c14.1,0,25.6-11.5,25.6-25.6V256c0-0.4-0.1-0.7-0.2-1.1C511.7,254.3,511.6,253.7,511.4,253.2z M17.1,59.7V25.6
			c0-4.7,3.8-8.5,8.5-8.5h273.1c4.7,0,8.5,3.8,8.5,8.5v34.1C307.2,59.7,17.1,59.7,17.1,59.7z M298.7,247.5v-34.1
			c0-0.1-0.1-0.2-0.1-0.4c0-0.9-0.2-1.8-0.5-2.6c-0.1-0.2-0.1-0.3-0.2-0.5c-0.4-0.9-0.9-1.7-1.6-2.3c-0.2-0.2-0.3-0.3-0.5-0.5
			s-0.5-0.5-0.7-0.7L257,179.2h202.9l-38.1,27.2c-0.3,0.2-0.5,0.4-0.7,0.7c-0.2,0.1-0.3,0.3-0.5,0.5c-0.7,0.7-1.2,1.5-1.6,2.3
			c-0.1,0.2-0.1,0.3-0.2,0.5c-0.3,0.8-0.5,1.7-0.5,2.6c0,0.1-0.1,0.2-0.1,0.4v34.1H298.7z M246.3,247.5l35.3-19.6v19.6H246.3z
			 M435.2,227.8l35.3,19.6h-35.3V227.8z M442.6,212.5l35.2-25.2V232L442.6,212.5z M238.9,187.3l35.2,25.2L238.9,232V187.3z
			 M486.4,494.9h-256c-4.7,0-8.5-3.8-8.5-8.5v-17.1h213.3c4.7,0,8.5-3.8,8.5-8.5s-3.8-8.5-8.5-8.5H221.9V264.5H495v187.7h-25.6
			c-4.7,0-8.5,3.8-8.5,8.5s3.8,8.5,8.5,8.5H495v17.1C494.9,491.1,491.1,494.9,486.4,494.9z"/>
		<path class="st4" d="M460.8,307.2c0.1-13-9.7-24-22.6-25.5s-25,6.9-27.9,19.6s4.1,25.6,16.4,29.9v1.6c0,23.6-19.1,42.6-42.7,42.7
			h-51.2c-23.6,0-42.6-19.1-42.7-42.7v-1.6c11.8-4.2,18.8-16.2,16.7-28.5s-12.8-21.3-25.2-21.3c-12.5,0-23.1,9-25.2,21.3
			s4.9,24.3,16.7,28.5v1.6c0,33,26.8,59.7,59.7,59.7H384c33,0,59.7-26.8,59.7-59.7v-1.6C453.9,327.6,460.8,318,460.8,307.2z
			 M281.6,298.7c4.7,0,8.5,3.8,8.5,8.5s-3.8,8.5-8.5,8.5s-8.5-3.8-8.5-8.5S276.9,298.7,281.6,298.7z M435.2,315.7
			c-4.7,0-8.5-3.8-8.5-8.5s3.8-8.5,8.5-8.5s8.5,3.8,8.5,8.5C443.7,311.9,439.9,315.7,435.2,315.7z"/>
	</g>
</g>
</svg>
