<?xml version="1.0" encoding="utf-8"?>
<!-- Generator: Adobe Illustrator 21.1.0, SVG Export Plug-In . SVG Version: 6.00 Build 0)  -->
<svg version="1.1" id="Capa_1" xmlns="http://www.w3.org/2000/svg" xmlns:xlink="http://www.w3.org/1999/xlink" x="0px" y="0px"
	 viewBox="0 0 512 512" style="enable-background:new 0 0 512 512;" xml:space="preserve">
<style type="text/css">
	.st0{fill:#DCDCDC;}
	.st1{fill:#F9F9F9;}
	.st2{fill:#FFFFFF;}
	.st3{fill:#774B9E;}
</style>
<g>
	<g>
		<path class="st0" d="M452,190.5c-3.1,3.6-7.5,5.8-12.3,6s-9.4-1.6-12.8-4.9l-53.2-53.2l72-72l52.5,52.5c6.5,6.3,7.3,16.5,1.7,23.6
			c-3.1,3.6-7.5,5.8-12.3,6s-9.4-1.6-12.8-4.9l-12-12c-3.3-3.3-8.7-3.3-12,0l-12,12c-3.3,3.3-3.3,8.7,0,12l11.3,11.3
			C456.8,173.2,457.5,183.4,452,190.5z"/>
		<path class="st0" d="M468.4,66.1L276,258.4L258.6,241L240,222.4L432.3,30.1c4.3-4.3,10-7.1,16-7.9c7.6-0.8,15.1,1.9,20.6,7.3
			c4.8,4.9,7.4,11.6,7.3,18.4C476.2,54.8,473.3,61.3,468.4,66.1z"/>
	</g>
	<path class="st1" d="M444.6,54.9L258.6,241L240,222.4L432.3,30.1c4.3-4.3,10-7.1,16-7.9C455.1,32.6,453.5,46.3,444.6,54.9z"/>
	<g>
		<path class="st0" d="M197.7,228.7l19-19c6.7-6.6,17.4-6.6,24,0l48,48c6.6,6.7,6.6,17.4,0,24l-19,19L197.7,228.7z"/>
		<path class="st0" d="M269.8,300.7c-13.8-32.4-39.6-58.3-72-72c-20.6-8.8-43.1-12.3-65.5-10.1c13.7,1.3,27.2,4.7,39.9,10.1
			c32.4,13.8,58.3,39.6,72,72c7.1,16.8,10.8,34.9,10.8,53.2c0,69.9-53.1,128.4-122.7,135.1c47.6,4.5,94-16.5,122.2-55.1
			S288.5,344.7,269.8,300.7z"/>
	</g>
	<path class="st1" d="M244.2,300.7c-13.8-32.4-39.6-58.3-72-72c-12.7-5.4-26.1-8.8-39.9-10.1c-1.6,0.1-3.1,0.2-4.7,0.4
		C59.7,227.6,8.7,285.3,8.7,353.8s51,126.2,118.9,134.7c1.5,0.2,3,0.3,4.5,0.4h0.1c43-4.2,81.5-28.6,103.6-65.8
		S261,340.5,244.2,300.7z M204.8,413.8c-19.1,19.1-46.2,28-72.9,24h-0.1c-1.5-0.3-2.8-0.5-4.2-0.8c-39.5-8.2-67.7-42.9-67.7-83.2
		s28.3-75.1,67.7-83.2c1.4-0.3,2.7-0.5,4.2-0.8h0.1c36.3-5.6,72.1,12.8,88.7,45.6S230.8,387.8,204.8,413.8z"/>
	<g>
		<path class="st2" d="M266.4,209.6l6,6L457.9,30.1c1.8-1.7,3.8-3.2,6-4.4c-4.7-2.7-10.1-3.9-15.5-3.4c-6.1,0.7-11.7,3.5-16,7.9
			L257.5,205C260.9,205.6,264,207.2,266.4,209.6z"/>
		<path class="st2" d="M127.6,488.5c1.5,0.2,3,0.3,4.5,0.4h0.1c8.1,0.7,16.3,0.7,24.4-0.1c-1.2-0.1-2.3-0.2-3.4-0.3
			C85.3,480,34.3,422.2,34.3,353.8s51-126.2,118.9-134.7c1.6-0.2,3.1-0.4,4.7-0.4h0.3c-8.6-0.8-17.3-0.8-25.9,0
			c-1.6,0.1-3.1,0.2-4.7,0.4C59.7,227.6,8.7,285.3,8.7,353.8S59.7,480,127.6,488.5L127.6,488.5z"/>
		<path class="st2" d="M223.3,228.6l18.2-18.2l-0.8-0.8c-6.7-6.6-17.4-6.6-24,0l-12.6,12.6C210.7,223.9,217.1,226,223.3,228.6z"/>
	</g>
	<path class="st3" d="M144.8,498.6c-24.7,0-49.6-6.3-72.1-19.3c-54-31-82.1-92.9-69.9-154s62-107.4,123.8-115.3
		c31.6-4,62.8,2.2,90.4,18.1s48.7,39.7,61.2,69c24.3,57.3,9.4,123.6-37.2,165C213.7,486.2,179.4,498.6,144.8,498.6z M144.7,226.9
		c-5.3,0-10.6,0.3-16,1c-54.1,6.9-97.6,47.5-108.3,101s13.9,107.7,61.2,134.9c19.7,11.3,41.5,16.9,63.2,16.9
		c30.3,0,60.3-10.9,84.1-32c40.8-36.2,53.9-94.3,32.6-144.5l0,0C241.5,257.1,195,226.9,144.7,226.9z M144.8,447.1
		c-9,0-18.1-1.3-27-4c-41.1-12.4-68.5-51-66.6-93.9s32.6-78.9,74.7-87.6c31.1-6.4,63,3.2,85.3,25.7l0,0
		c30.3,30.4,36,77.4,13.9,114.2C207.8,430.4,177,447.1,144.8,447.1z M144.8,277.7c-5.1,0-10.2,0.5-15.4,1.6
		c-34,7-58.8,36.1-60.3,70.8s20.6,65.8,53.8,75.8s68.9-3.8,86.7-33.5s13.2-67.7-11.2-92.3l0,0C184,285.6,164.7,277.7,144.8,277.7z"
		/>
	<polygon class="st2" points="439,35.5 360.5,114 252.8,221.7 240.8,209.6 348.5,101.9 426.9,23.4 	"/>
	<g>
		<path class="st3" d="M203.8,234.7l19-19c3.3-3.3,8.6-3.3,11.9,0l48,48c3.3,3.3,3.3,8.6,0,11.9l-19,19c-2.2,2.1-3.1,5.3-2.3,8.3
			c0.8,3,3.1,5.3,6.1,6.1c3,0.8,6.2-0.1,8.3-2.3l19-19c9.9-10,9.9-26.1,0-36.1l90-90l36,36c4.6,4.7,11,7.4,17.6,7.4h0.3
			c7.6,0.1,14.8-3.2,19.6-9.1c8.4-10.5,7.5-25.7-2.2-35.1l-11.3-11.3l11.9-12l12,12c5.1,5,12,7.7,19.2,7.4s13.8-3.6,18.4-9
			c8.4-10.5,7.5-25.7-2.2-35.1l-35.3-35.3l6-6c13.3-13.3,13.3-34.8,0-48.1s-34.8-13.3-48.1,0l-24.1,24.1c-3.2,3.3-3.2,8.7,0.1,12
			c3.3,3.3,8.6,3.3,12,0.1l24.1-24.1c4.2-4.4,10.6-6.2,16.5-4.7s10.6,6.2,12.1,12.1s-0.2,12.3-4.7,16.5l-12,12l-48,48L282.8,239.6
			l-24-24l107.7-107.7c3.2-3.3,3.2-8.7-0.1-12c-3.3-3.3-8.6-3.3-12-0.1L246.8,203.6c-10-9.9-26.1-9.9-36,0l-19,19
			c-3.2,3.3-3.2,8.7,0.1,12C195.1,237.8,200.4,237.9,203.8,234.7L203.8,234.7z M492.3,124.9c3.4,3.1,3.9,8.3,1.2,12
			c-1.5,1.8-3.7,2.9-6.1,3s-4.7-0.8-6.4-2.4l-12-12c-6.7-6.4-17.3-6.4-24.1,0l-12,12c-3.2,3.2-5,7.5-5,12s1.8,8.8,5,12l11.3,11.3
			c3.4,3.1,3.9,8.3,1.2,12c-1.6,2-4.1,3.1-6.6,3c-2.2-0.1-4.3-0.9-5.9-2.4l-36-36l19-19l41-41L492.3,124.9z"/>
		<path class="st3" d="M378.6,83.8c2.4,2.5,6.1,3.2,9.3,1.9c3.2-1.3,5.3-4.5,5.3-7.9l-0.2-1.6c-0.1-0.6-0.3-1.1-0.5-1.6
			s-0.4-1-0.7-1.4c-0.3-0.5-0.7-0.9-1.1-1.3c-2.4-2.5-6.1-3.2-9.3-1.8c-3.2,1.3-5.2,4.4-5.3,7.9c0,1.1,0.3,2.2,0.7,3.3
			C377.2,82,377.8,83,378.6,83.8z"/>
	</g>
</g>
</svg>
