<?xml version="1.0" encoding="utf-8"?>
<!-- Generator: Adobe Illustrator 21.1.0, SVG Export Plug-In . SVG Version: 6.00 Build 0)  -->
<svg version="1.1" id="Capa_1" xmlns="http://www.w3.org/2000/svg" xmlns:xlink="http://www.w3.org/1999/xlink" x="0px" y="0px"
	 viewBox="0 0 512 512" style="enable-background:new 0 0 512 512;" xml:space="preserve">
<style type="text/css">
	.st0{fill:#DCDCDC;}
	.st1{fill:#FAFAFA;}
	.st2{fill:#FFFFFF;}
	.st3{fill:#774C9E;}
</style>
<g>
	<g transform="translate(1 1)">
		<path class="st0" d="M502.5,255c0,65.6-26.1,128.6-72.5,175s-109.4,72.5-175,72.5c-4.3,0-8.5-0.1-12.7-0.3h-0.2
			C110.6,495.3,7.5,386.7,7.5,255S110.6,14.7,242.1,7.9h0.2c4.2-0.3,8.4-0.3,12.7-0.3c65.6,0,128.6,26.1,175,72.5
			S502.5,189.4,502.5,255z"/>
		<path class="st1" d="M476.9,255c0,131.7-103.1,240.3-234.6,247.1h-0.2C110.6,495.3,7.5,386.7,7.5,255S110.6,14.7,242.1,7.9h0.2
			C373.8,14.7,476.9,123.3,476.9,255z"/>
		<path class="st0" d="M476.9,246.5v145.1c0,9.1-3.6,17.7-10,24.1s-15.1,10-24.1,10h-25.6c9.1,0,17.7-3.6,24.1-10s10-15.1,10-24.1
			V246.5c0-9.1-3.6-17.7-10-24.1s-15.1-10-24.1-10h25.6c9.1,0,17.7,3.6,24.1,10C473.3,228.7,476.9,237.4,476.9,246.5z"/>
		<path class="st1" d="M417.1,425.7l5,11.8l20.6,48L407.5,463l-9.5-6.1l-49.2-31.2H229.4c-9.1,0-17.7-3.6-24.1-10
			c-6.4-6.4-10-15.1-10-24.1V255l119.5-42.7h102.4c9.1,0,17.7,3.6,24.1,10s10,15.1,10,24.1v145.1c0,9.1-3.6,17.7-10,24.1
			C434.9,422.1,426.2,425.7,417.1,425.7z"/>
		<path class="st0" d="M314.7,75.8v145.1c0,9.1-3.6,17.7-10,24.1c-6.4,6.4-15.1,10-24.1,10H255c9.1,0,17.7-3.6,24.1-10
			s10-15.1,10-24.1V75.8c0-9.1-3.6-17.7-10-24.1s-15.1-10-24.1-10h25.6c9.1,0,17.7,3.6,24.1,10S314.7,66.7,314.7,75.8z"/>
		<g>
			<path class="st1" d="M289.1,75.8v145.1c0,9.1-3.6,17.7-10,24.1c-6.4,6.4-15.1,10-24.1,10h-93.9l-93.9,59.7l9.6-22.4l16-37.4H67.3
				c-15.3,0-28.8-10.2-32.9-25c-0.9-3-1.3-6-1.3-9.1V75.8c0-9.1,3.6-17.7,10-24.1s15.1-10,24.1-10H255c9.1,0,17.7,3.6,24.1,10
				S289.1,66.7,289.1,75.8z"/>
			<circle class="st0" cx="101.4" cy="144.1" r="25.6"/>
			<circle class="st0" cx="178.2" cy="144.1" r="25.6"/>
			<circle class="st0" cx="255" cy="144.1" r="25.6"/>
			<circle class="st0" cx="255" cy="314.7" r="25.6"/>
			<circle class="st0" cx="331.8" cy="314.7" r="25.6"/>
			<circle class="st0" cx="408.6" cy="314.7" r="25.6"/>
		</g>
	</g>
	<path class="st2" d="M268.7,503.1c-4.2,0.3-8.4,0.3-12.7,0.3s-8.5-0.1-12.7-0.3h-0.2c-83.2-4.3-158.5-50.2-200.6-122
		s-45.2-160-8.3-234.7v75.4c0,3.1,0.4,6.2,1.3,9.1c-0.9,8.3-1.3,16.7-1.3,25C34.1,387.7,137.2,496.3,268.7,503.1z"/>
	<g>
		<path class="st2" d="M17.1,256c0.1,35.8,8.3,71.2,23.8,103.5c4.8,10.1,10.3,19.8,16.4,29.2c3.2,4.6,6.7,9,10,13.5
			c3.3,4.5,6.8,8.8,10.7,12.8c14.8,16.8,32,31.3,51,43.1c18.9,12,39.4,21.2,60.9,27.3c21.5,6,43.8,9.2,66.1,9.5V512
			c-24-0.2-47.8-3.7-70.9-10.1c-23.1-6.6-45-16.5-65.3-29.3c-20.4-12.7-38.8-28.2-54.6-46.2c-4.2-4.3-8-8.9-11.5-13.8
			c-3.5-4.8-7.3-9.5-10.7-14.4c-6.5-10-12.4-20.5-17.6-31.3C8.8,332.3,0.1,294.4,0,256H17.1z"/>
		<g>
			<path class="st3" d="M13.8,331c1,0.5,2.1,0.8,3.3,0.9c1.1,0.1,2.3,0,3.3-0.3c4.4-1.5,6.9-6,5.9-10.5c-0.6-2.1-2-3.9-3.9-5.1
				l-1.5-0.7c-0.5-0.2-1.1-0.3-1.7-0.4c-0.5-0.1-1.1-0.2-1.6-0.1c-0.6,0-1.1,0.1-1.7,0.2c-2.2,0.6-4.1,2-5.3,3.9
				C8.4,323.2,9.8,328.4,13.8,331L13.8,331z"/>
			<path class="st3" d="M256,0c-44.8,0-88.8,11.8-127.7,34.1h-60c-23.6,0-42.6,19.1-42.7,42.7v67.7C8.7,179.2-0.1,217.4,0,256
				l0.9,17.6l0.5,8.8l1.3,8.7c0.3,2.3,1.5,4.3,3.3,5.7s4.1,1.9,6.4,1.6c4.6-0.8,7.7-5,7.2-9.6l-1.3-8.1l-0.4-8.2L17.1,256
				c0-21.4,2.9-42.7,8.5-63.3v29.2c0,23.6,19.1,42.6,42.7,42.7h12.7l-20.5,47.8c-1.5,3.4-0.5,7.4,2.3,9.9c2.9,2.4,6.9,2.7,10.1,0.7
				l91.8-58.4h23.1v128c0,23.6,19.1,42.6,42.7,42.7h117l35.9,22.8c-38,24.2-82.2,37-127.3,36.9c-22.4-0.2-44.6-3.4-66.1-9.5
				c-21.5-6.1-42-15.4-60.9-27.3c-19-11.8-36.2-26.3-51-43.1c-3.9-4-7.5-8.3-10.7-12.8c-3.3-4.5-6.8-8.9-10-13.5
				c-6.1-9.4-11.6-19.1-16.4-29.2l-3.6-7.4c-2-4.1-6.8-6.1-11.1-4.4c-2.2,0.8-3.9,2.5-4.7,4.7c-0.9,2.1-0.8,4.6,0.2,6.6l3.8,8
				c5.2,10.8,11,21.2,17.6,31.3c3.4,4.9,7.1,9.6,10.7,14.4c3.5,4.9,7.3,9.5,11.5,13.8c15.9,18,34.3,33.5,54.6,46.2
				c20.2,12.8,42.2,22.7,65.3,29.3c23.1,6.5,46.9,9.9,70.9,10.1c51,0.1,100.9-15.2,143-43.9l40.1,25.5c3.2,2,7.3,1.7,10.1-0.7
				c2.9-2.4,3.8-6.4,2.3-9.9l-18.2-42.5c1.9-1.8,3.6-3.6,5.4-5.4h5c23.6,0,42.6-19.1,42.7-42.7v-25c16.9-34.7,25.7-72.9,25.6-111.5
				C511.8,114.7,397.3,0.2,256,0z M101.7,259.4L101.7,259.4c0.2-0.6,0.3-1.2,0.4-1.8c0.1-0.5,0.2-1,0.3-1.5l0,0
				c0-0.2-0.1-0.4-0.1-0.6c0-0.9-0.2-1.8-0.5-2.6c-0.6-0.9-1.2-1.8-1.8-2.7c-0.7-0.6-1.4-1.2-2.3-1.6c-0.2-0.1-0.3-0.2-0.4-0.3l0,0
				c-0.5-0.2-1-0.3-1.5-0.3c-0.6-0.2-1.2-0.3-1.8-0.4H68.3c-14.1,0-25.6-11.5-25.6-25.6V76.8c0-14.1,11.5-25.6,25.6-25.6h213.3
				c14.1,0,25.6,11.5,25.6,25.6v145.1c0,14.1-11.5,25.6-25.6,25.6H162.1c-0.2,0-0.4,0.1-0.7,0.1c-1.1,0.1-2.2,0.5-3.3,0.9
				c-0.2,0.1-0.4,0.1-0.6,0.3L87,293.7L101.7,259.4z M469.3,392.5c0,14.1-11.5,25.6-25.6,25.6h-25.6l0,0c-0.6,0.1-1.3,0.2-1.9,0.4
				c-0.5,0.1-1,0.2-1.4,0.3h0l-0.1,0.1c-1,0.4-1.9,1-2.6,1.8c-0.6,0.9-1.2,1.8-1.8,2.7c-0.4,1-0.6,2-0.6,3c0,0.1,0,0.1,0,0.2l0,0
				c0.1,0.7,0.2,1.5,0.4,2.2c0.1,0.4,0.1,0.8,0.2,1.1l0,0l14.7,34.3l-21.4-13.6l-0.2-0.1l-48.9-31.1c-0.2-0.1-0.4-0.1-0.6-0.2
				c-1-0.5-2.1-0.8-3.2-0.9c-0.2,0-0.4-0.1-0.7-0.1H230.4c-14.1,0-25.6-11.5-25.6-25.6v-128h76.8c23.6,0,42.6-19.1,42.7-42.7h119.5
				c14.1,0,25.6,11.5,25.6,25.6L469.3,392.5L469.3,392.5z M486.4,319.3v-71.8c0-23.6-19.1-42.6-42.7-42.7H324.3v-128
				c0-23.6-19.1-42.6-42.7-42.7H167.5c84.2-33.6,180.2-16.7,247.8,43.8S510.4,231.8,486.4,319.3z"/>
			<path class="st3" d="M102.4,110.9c-18.9,0-34.1,15.3-34.1,34.1s15.3,34.1,34.1,34.1s34.1-15.3,34.1-34.1
				C136.5,126.2,121.2,111,102.4,110.9z M102.4,162.1c-9.4,0-17.1-7.6-17.1-17.1S93,128,102.4,128s17.1,7.6,17.1,17.1
				C119.5,154.5,111.8,162.1,102.4,162.1z"/>
			<path class="st3" d="M213.3,145.1c0-18.9-15.3-34.1-34.1-34.1s-34.1,15.3-34.1,34.1s15.3,34.1,34.1,34.1
				C198,179.2,213.3,163.9,213.3,145.1z M162.1,145.1c0-9.4,7.6-17.1,17.1-17.1s17.1,7.6,17.1,17.1s-7.6,17.1-17.1,17.1
				C169.8,162.1,162.1,154.5,162.1,145.1z"/>
			<path class="st3" d="M256,179.2c18.9,0,34.1-15.3,34.1-34.1s-15.3-34.1-34.1-34.1s-34.1,15.3-34.1,34.1
				C221.9,163.9,237.2,179.2,256,179.2z M256,128c9.4,0,17.1,7.6,17.1,17.1s-7.6,17.1-17.1,17.1s-17.1-7.6-17.1-17.1
				C238.9,135.6,246.6,128,256,128z"/>
			<path class="st3" d="M256,281.6c-18.9,0-34.1,15.3-34.1,34.1s15.3,34.1,34.1,34.1s34.1-15.3,34.1-34.1
				C290.1,296.9,274.8,281.6,256,281.6z M256,332.8c-9.4,0-17.1-7.6-17.1-17.1s7.6-17.1,17.1-17.1s17.1,7.6,17.1,17.1
				C273.1,325.2,265.4,332.8,256,332.8z"/>
			<path class="st3" d="M332.8,281.6c-18.9,0-34.1,15.3-34.1,34.1s15.3,34.1,34.1,34.1c18.9,0,34.1-15.3,34.1-34.1
				C366.9,296.9,351.6,281.6,332.8,281.6z M332.8,332.8c-9.4,0-17.1-7.6-17.1-17.1s7.6-17.1,17.1-17.1s17.1,7.6,17.1,17.1
				C349.9,325.2,342.2,332.8,332.8,332.8z"/>
			<path class="st3" d="M409.6,281.6c-18.9,0-34.1,15.3-34.1,34.1s15.3,34.1,34.1,34.1s34.1-15.3,34.1-34.1
				C443.7,296.9,428.4,281.6,409.6,281.6z M409.6,332.8c-9.4,0-17.1-7.6-17.1-17.1s7.6-17.1,17.1-17.1s17.1,7.6,17.1,17.1
				C426.7,325.2,419,332.8,409.6,332.8z"/>
		</g>
	</g>
</g>
</svg>
