<svg
    xmlns="http://www.w3.org/2000/svg"
    viewBox="0 0 512 512"
    id="vector">
    <path
        id="path"
        d="M 239 451.8 C 239 480 216.1 502.9 187.9 502.9 C 183.6 502.9 179.3 502.3 175.1 501.3 C 152.5 495.5 136.8 475.2 136.8 451.9 C 136.8 428.6 152.6 408.3 175.1 402.5 C 179.3 401.4 183.6 400.8 187.9 400.8 C 216.1 400.7 239 423.6 239 451.8 Z"
        fill="#dcdcdc"/>
    <path
        id="path_1"
        d="M 409.3 451.8 C 409.3 480 386.4 502.9 358.2 502.9 C 353.9 502.9 349.6 502.3 345.4 501.3 C 322.8 495.5 307.1 475.2 307.1 451.9 C 307.1 428.6 322.9 408.3 345.4 402.5 C 349.6 401.4 353.9 400.8 358.2 400.8 C 386.4 400.7 409.3 423.6 409.3 451.8 Z"
        fill="#dcdcdc"/>
    <path
        id="path_2"
        d="M 213.4 451.8 C 213.3 475.1 197.6 495.4 175.1 501.3 C 152.5 495.5 136.8 475.2 136.8 451.9 C 136.8 428.6 152.6 408.3 175.1 402.5 C 197.6 408.2 213.4 428.5 213.4 451.8 Z"
        fill="#fafafa"/>
    <path
        id="path_3"
        d="M 383.8 451.8 C 383.7 475.1 368 495.4 345.5 501.3 C 322.9 495.5 307.2 475.2 307.2 451.9 C 307.2 428.6 323 408.3 345.5 402.5 C 368 408.2 383.7 428.5 383.8 451.8 Z"
        fill="#fafafa"/>
    <path
        id="path_4"
        d="M 485.2 150 L 433.9 320.4 C 431.7 327.6 425 332.6 417.5 332.6 L 84.4 332.6 L 71.6 128.1 L 468.9 128.1 C 474.3 128.1 479.3 130.6 482.6 134.9 C 485.8 139.3 486.7 144.8 485.2 150 Z"
        fill="#dcdcdc"/>
    <path
        id="path_5"
        d="M 459.7 150 L 408.4 320.4 C 406.2 327.6 399.5 332.6 392 332.6 L 84.4 332.6 L 71.6 128.1 L 443.3 128.1 C 448.7 128.1 453.8 130.6 457 134.9 C 460.2 139.3 461.2 144.8 459.7 150 Z"
        fill="#fafafa"/>
    <path
        id="path_6"
        d="M 373 164.1 C 377.6 168.8 377.6 176.3 373 181 L 341.7 212.3 C 337 216.9 329.5 216.9 324.8 212.3 L 321.1 208.6 L 273 160.5 L 260.9 172.7 L 221.2 212.4 C 216.5 217 209 217 204.3 212.4 L 173 181.1 C 168.4 176.4 168.4 168.9 173 164.2 L 224.8 112.4 L 173 60.6 C 168.4 55.9 168.4 48.4 173 43.7 L 200.7 16.1 L 204.4 12.4 C 206.6 10.2 209.7 8.9 212.8 8.9 C 215.9 8.9 219 10.2 221.2 12.4 L 273 64.2 L 321.1 16.2 L 324.8 12.5 C 327 10.3 330.1 9 333.2 9 C 336.4 9 339.4 10.3 341.6 12.5 L 372.9 43.8 C 377.5 48.5 377.5 56 372.9 60.7 L 321.1 112.5 L 373 164.1 Z"
        fill="#dcdcdc"/>
    <path
        id="path_7"
        d="M 348.8 164.1 C 353.4 168.8 353.4 176.3 348.8 181 L 321.2 208.6 L 273 160.5 L 260.9 172.7 L 213.4 221.8 L 200.6 208.6 L 173 181 C 168.4 176.3 168.4 168.8 173 164.1 L 224.8 112.3 L 173 60.5 C 168.4 55.8 168.4 48.3 173 43.6 L 200.7 16 L 213.4 8.8 L 260.9 52 L 273 64.1 L 321.1 16.1 L 348.7 43.7 C 353.3 48.4 353.3 55.9 348.7 60.6 L 296.8 112.4 L 348.8 164.1 Z"
        fill="#fafafa"/>
    <path
        id="path_8"
        d="M 109.9 332.5 L 97.1 128.1 L 71.6 128.1 L 84.4 332.5 L 109.9 332.5 Z"
        fill="#ffffff"/>
    <path
        id="path_9"
        d="M 175.1 402.4 C 152.5 408.2 136.8 428.5 136.8 451.8 C 136.8 475.1 152.6 495.4 175.1 501.2 C 179.3 502.3 183.6 502.8 187.9 502.8 C 192.2 502.8 196.4 502.2 200.6 501.1 C 178.1 495.3 162.4 474.9 162.4 451.6 C 162.4 428.3 178.2 408 200.7 402.2 L 200.8 402.2 C 196.6 401.1 192.3 400.5 188 400.5 C 183.5 400.7 179.2 401.3 175.1 402.4 Z"
        fill="#ffffff"/>
    <path
        id="path_10"
        d="M 75.3 324.5 L 68.4 214 L 63.1 128.6 L 80.1 127.5 L 85.4 212.9 L 92.3 323.5 L 75.3 324.5 Z"
        fill="#ffffff"/>
    <path
        id="path_11"
        d="M 76.8 264 C 77.3 264.2 77.8 264.4 78.4 264.4 C 79 264.5 79.5 264.5 80.1 264.5 C 82.3 264.3 84.4 263.3 86 261.7 C 86.7 260.8 87.3 259.9 87.6 258.8 C 88.4 256.7 88.3 254.3 87.3 252.3 C 86.3 250.3 84.5 248.7 82.3 248.1 C 81.3 247.7 80.1 247.6 79 247.6 C 75.6 247.8 72.6 250.1 71.5 253.3 C 70.4 256.6 71.3 260.2 73.9 262.5 L 75.2 263.4 C 75.7 263.7 76.3 263.9 76.8 264 Z"
        fill="#774c9e"/>
    <path
        id="path_12"
        d="M 187.8 477.3 C 201.9 477.3 213.4 465.9 213.4 451.7 C 213.4 437.5 202 426.1 187.8 426.1 C 183.1 426.1 179.3 429.9 179.3 434.6 C 179.3 439.3 183.1 443.1 187.8 443.1 C 192.5 443.1 196.3 446.9 196.3 451.6 C 196.3 456.3 192.5 460.1 187.8 460.1 C 183.1 460.1 179.3 456.3 179.3 451.6 C 179.3 446.9 175.5 443.1 170.8 443.1 C 166.1 443.1 162.3 446.9 162.3 451.6 C 162.3 465.9 173.7 477.3 187.8 477.3 Z"
        fill="#774c9e"/>
    <path
        id="path_13"
        d="M 358.2 477.3 C 372.3 477.3 383.8 465.9 383.8 451.7 C 383.8 437.5 372.4 426.1 358.2 426.1 C 353.5 426.1 349.7 429.9 349.7 434.6 C 349.7 439.3 353.5 443.1 358.2 443.1 C 362.9 443.1 366.7 446.9 366.7 451.6 C 366.7 456.3 362.9 460.1 358.2 460.1 C 353.5 460.1 349.7 456.3 349.7 451.6 C 349.7 446.9 345.9 443.1 341.2 443.1 C 336.5 443.1 332.7 446.9 332.7 451.6 C 332.7 465.9 344.1 477.3 358.2 477.3 Z"
        fill="#774c9e"/>
    <path
        id="path_14"
        d="M 442.1 322.8 L 493.4 152.4 C 495.7 144.7 494.2 136.3 489.4 129.8 C 484.6 123.3 477 119.5 468.9 119.5 L 392.3 119.5 C 387.6 119.5 383.8 123.3 383.8 128 C 383.8 132.7 387.6 136.5 392.3 136.5 L 468.9 136.5 C 471.6 136.5 474.2 137.8 475.8 140 C 477.4 142.1 477.9 144.9 477.1 147.4 L 425.8 317.8 C 424.7 321.5 421.3 324 417.5 323.9 L 92.3 323.9 L 92.3 323.5 L 90.2 289.5 C 89.9 284.8 85.9 281.2 81.1 281.5 C 76.4 281.8 72.8 285.8 73.1 290.6 L 75.2 324.6 L 77.4 359.1 C 77.5 386.8 99.9 409.2 127.6 409.2 L 146.2 409.2 C 128.8 426.1 123.5 451.9 132.6 474.4 C 141.7 496.9 163.6 511.5 187.8 511.5 C 212 511.5 233.9 496.8 243 474.4 C 252.1 451.9 246.8 426.2 229.4 409.2 L 316.6 409.2 C 299.2 426.1 293.9 451.9 303 474.4 C 312.1 496.9 334 511.5 358.2 511.5 C 382.4 511.5 404.3 496.8 413.4 474.4 C 422.5 451.9 417.2 426.2 399.8 409.2 L 460.4 409.2 C 465.1 409.2 468.9 405.4 468.9 400.7 C 468.9 396 465.1 392.2 460.4 392.2 L 127.6 392.2 C 118.7 392.2 110.2 388.6 104 382.3 C 97.8 376 94.3 367.4 94.4 358.6 L 93.3 341.1 L 417.4 341.1 C 428.9 341.1 438.9 333.7 442.1 322.8 Z M 400.8 451.8 C 400.8 475.3 381.7 494.4 358.2 494.4 C 334.7 494.4 315.6 475.3 315.6 451.8 C 315.6 428.3 334.7 409.2 358.2 409.2 C 381.7 409.2 400.8 428.3 400.8 451.8 Z M 230.4 451.8 C 230.4 475.3 211.3 494.4 187.8 494.4 C 164.3 494.4 145.2 475.3 145.2 451.8 C 145.2 428.3 164.3 409.2 187.8 409.2 C 211.4 409.2 230.4 428.3 230.4 451.8 Z"
        fill="#774c9e"/>
    <path
        id="path_15"
        d="M 153.8 119.6 L 79.6 119.6 L 73.7 25.4 C 73.4 20.9 69.7 17.4 65.2 17.4 L 26 17.4 C 21.3 17.4 17.5 21.2 17.5 25.9 C 17.5 30.6 21.3 34.4 26 34.4 L 57.2 34.4 L 63.1 128.6 L 69 222.5 C 69.3 227.2 73.3 230.8 78.1 230.5 C 82.8 230.2 86.4 226.2 86.1 221.4 L 80.6 136.6 L 153.8 136.6 C 158.5 136.6 162.3 132.8 162.3 128.1 C 162.3 123.4 158.5 119.6 153.8 119.6 Z"
        fill="#774c9e"/>
    <path
        id="path_16"
        d="M 347.7 6.3 C 339.6 -1.4 326.9 -1.4 318.8 6.3 L 273 52.1 L 227.3 6.3 C 219.2 -1.4 206.5 -1.4 198.4 6.3 L 167.1 37.6 C 159.1 45.6 159.1 58.5 167.1 66.5 L 212.9 112.3 L 167.1 158.1 C 159.1 166.1 159.1 179 167.1 187 L 198.4 218.3 C 206.5 226 219.2 226 227.3 218.3 L 273.1 172.5 L 318.9 218.3 C 326.9 226.3 339.8 226.3 347.8 218.3 L 379.1 187 C 387.1 179 387.1 166.1 379.1 158.1 L 333.3 112.3 L 379.1 66.5 C 387.1 58.5 387.1 45.6 379.1 37.6 L 347.7 6.3 Z M 367 54.5 L 315.2 106.3 C 311.9 109.6 311.9 115 315.2 118.3 L 367 170.1 C 367.6 170.7 368 171.6 368 172.5 C 368 173.4 367.6 174.3 367 174.9 L 335.7 206.2 C 335.2 207 334.3 207.5 333.3 207.5 C 332.3 207.5 331.4 207 330.9 206.2 L 279 154.5 C 275.7 151.2 270.3 151.2 267 154.5 L 215.2 206.3 C 214.7 207.1 213.8 207.6 212.8 207.6 C 211.8 207.6 210.9 207.1 210.4 206.3 L 179.1 174.9 C 178.5 174.3 178.1 173.4 178.1 172.5 C 178.1 171.6 178.5 170.7 179.1 170.1 L 230.9 118.3 C 234.2 115 234.2 109.6 230.9 106.3 L 179.1 54.5 C 178.5 53.9 178.1 53 178.1 52.1 C 178.1 51.2 178.5 50.3 179.1 49.7 L 210.4 18.4 C 210.9 17.6 211.8 17.1 212.8 17.1 C 213.8 17.1 214.7 17.6 215.2 18.4 L 267 70.2 C 270.3 73.5 275.7 73.5 279 70.2 L 330.8 18.4 C 331.3 17.6 332.2 17.1 333.2 17.1 C 334.2 17.1 335.1 17.6 335.6 18.4 L 366.9 49.7 C 368.3 51 368.3 53.2 367 54.5 Z"
        fill="#774c9e"/>
    <path
        id="path_17"
        d="M 358.2 298.5 C 362.9 298.5 366.7 294.7 366.7 290 C 366.7 285.3 362.9 281.5 358.2 281.5 L 196.4 281.5 C 191.7 281.5 187.9 285.3 187.9 290 C 187.9 294.7 191.7 298.5 196.4 298.5 L 358.2 298.5 Z"
        fill="#774c9e"/>
</svg>
