<?xml version="1.0" encoding="utf-8"?>
<!-- Generator: Adobe Illustrator 21.1.0, SVG Export Plug-In . SVG Version: 6.00 Build 0)  -->
<svg version="1.1" id="Capa_1" xmlns="http://www.w3.org/2000/svg" xmlns:xlink="http://www.w3.org/1999/xlink" x="0px" y="0px"
	 viewBox="0 0 512 512" style="enable-background:new 0 0 512 512;" xml:space="preserve">
<style type="text/css">
	.st0{fill:#DCDCDC;}
	.st1{fill:#F9F9F9;}
	.st2{fill:#FFFFFF;}
	.st3{fill:#774B9E;}
</style>
<g>
	<g transform="translate(1 1)">
		<rect x="92.9" y="50.2" class="st0" width="324.3" height="409.6"/>
		<rect x="92.9" y="75.8" class="st1" width="298.7" height="358.4"/>
		<g>
			<path class="st0" d="M417.1,434.2v34.1c0,9.1-3.6,17.7-10,24.1s-15.1,10-24.1,10H127c-9.1,0-17.7-3.6-24.1-10s-10-15.1-10-24.1
				v-34.1H417.1z"/>
			<path class="st0" d="M417.1,41.7v34.1H92.9V41.7c0-9.1,3.6-17.7,10-24.1s15.1-10,24.1-10h256c9.1,0,17.7,3.6,24.1,10
				S417.1,32.6,417.1,41.7z"/>
		</g>
		<g>
			<path class="st1" d="M391.5,434.2v34.1c0.7,18.1-13.3,33.4-31.4,34.1H124.3c-18.1-0.8-32.2-16-31.4-34.1v-34.1H391.5z"/>
			<path class="st1" d="M391.5,41.7v34.1H92.9V41.7c-0.7-18.1,13.3-33.4,31.4-34.1h235.8C378.2,8.3,392.3,23.6,391.5,41.7z"/>
		</g>
		<path class="st1" d="M297.7,263.5v42.7c0,9.1-3.6,17.7-10,24.1s-15.1,10-24.1,10H92.9L41.7,400v-59.7c-9.1,0-17.7-3.6-24.1-10
			s-10-15.1-10-24.1v-85.3c0-9.1,3.6-17.7,10-24.1c6.4-6.4,15.1-10,24.1-10h170.7l59.7,53.8L297.7,263.5z"/>
		<g>
			<path class="st0" d="M297.7,263.5v42.7c0,9.1-3.6,17.7-10,24.1s-15.1,10-24.1,10H238c9.1,0,17.7-3.6,24.1-10
				c6.4-6.4,10-15.1,10-24.1v-42.7l-25.6-23l-34.1-53.8H238l34.1,53.8L297.7,263.5z"/>
			<path class="st0" d="M502.5,144.1v85.3c0,9.1-3.6,17.7-10,24.1s-15.1,10-24.1,10v59.7l-51.2-59.7H246.5c-9.1,0-17.7-3.6-24.1-10
				c-6.4-6.4-10-15.1-10-24.1v-85.3c0-9.1,3.6-17.7,10-24.1s15.1-10,24.1-10h221.9c9.1,0,17.7,3.6,24.1,10
				C498.9,126.3,502.5,135,502.5,144.1z"/>
		</g>
		<g>
			<path class="st1" d="M476.9,144.1v85.3c0,9.1-3.6,17.7-10,24.1s-15.1,10-24.1,10v29.9l-25.6-29.9H246.5c-9.1,0-17.7-3.6-24.1-10
				c-6.4-6.4-10-15.1-10-24.1v-85.3c0-9.1,3.6-17.7,10-24.1s15.1-10,24.1-10h196.3c9.1,0,17.7,3.6,24.1,10
				C473.3,126.3,476.9,135,476.9,144.1z"/>
			<circle class="st0" cx="272.1" cy="186.7" r="25.6"/>
			<circle class="st0" cx="357.4" cy="186.7" r="25.6"/>
			<circle class="st0" cx="442.7" cy="186.7" r="25.6"/>
		</g>
		<g>
			<path class="st2" d="M33.1,220.9v85.3c0,9.1,3.6,17.7,10,24.1s15.1,10,24.1,10v29.9l-25.6,29.9v-59.7c-9.1,0-17.7-3.6-24.1-10
				s-10-15.1-10-24.1V221c0-9.1,3.6-17.7,10-24.1c6.4-6.4,15.1-10,24.1-10h25.6c-9.1,0-17.7,3.6-24.1,10
				C36.7,203.1,33.1,211.8,33.1,220.9z"/>
			<path class="st2" d="M118.5,186.7H92.9v-145c-0.7-18.1,13.3-33.3,31.4-34.1h25.3c-17.9,1-31.8,16.2-31.1,34.1L118.5,186.7
				L118.5,186.7z"/>
			<path class="st2" d="M149.9,502.5h-25.6c-18.1-0.8-32.1-16-31.4-34.1v-128h25.6v128C117.8,486.4,131.8,501.7,149.9,502.5z"/>
		</g>
	</g>
	<g>
		<polygon class="st2" points="102.4,68.3 102.4,179.2 102.4,187.7 85.3,187.7 85.3,179.2 85.3,68.3 		"/>
		<g>
			<path class="st3" d="M93.9,145.1c3.4,0,6.6-2.1,7.9-5.3s0.6-6.9-1.8-9.3l-1.3-1c-0.5-0.3-1-0.6-1.5-0.8s-1-0.4-1.5-0.5
				c-0.6-0.1-1.1-0.2-1.7-0.2c-2.3,0-4.4,0.9-6.1,2.5c-2.1,2-3,4.9-2.4,7.7s2.5,5.1,5.2,6.2C91.6,144.8,92.8,145.1,93.9,145.1z"/>
			<path class="st3" d="M273.1,460.8H239c-4.7,0-8.5,3.8-8.5,8.5s3.8,8.5,8.5,8.5h34.1c4.7,0,8.5-3.8,8.5-8.5
				C281.6,464.6,277.8,460.8,273.1,460.8z"/>
			<path class="st3" d="M264.5,34.1h-17.1c-4.7,0-8.5,3.8-8.5,8.5s3.8,8.5,8.5,8.5h17.1c4.7,0,8.5-3.8,8.5-8.5
				S269.2,34.1,264.5,34.1z"/>
			<path class="st3" d="M469.3,102.4h-42.7V42.7c0-23.6-19-42.7-42.6-42.7H128c-23.6,0-42.6,19.1-42.7,42.7v59.7
				c0,4.7,3.8,8.5,8.5,8.5s8.5-3.8,8.5-8.5V85.3h307.2v17.1h-162c-23.6,0-42.6,19.1-42.7,42.7v34.1H102.4v-8.5
				c0-4.7-3.8-8.5-8.5-8.5s-8.5,3.8-8.5,8.5v8.5H42.7C19.1,179.2,0,198.3,0,221.9v85.3c0,20.3,14.3,37.7,34.1,41.8v52.1
				c0,3.6,2.2,6.8,5.6,8c3.3,1.2,7.1,0.3,9.4-2.5l36.2-42.2v104.9c0,23.6,19.1,42.6,42.7,42.7h256c23.6,0,42.6-19.1,42.7-42.7V287.6
				l36.2,42.2c2.3,2.7,6.1,3.7,9.4,2.4s5.6-4.4,5.6-8v-52.1c19.9-4.1,34.1-21.5,34.1-41.8V145C512,121.5,492.9,102.4,469.3,102.4z
				 M102.4,68.3V42.7c0-14.1,11.5-25.6,25.6-25.6h256c14.1,0,25.6,11.5,25.6,25.6v25.6H102.4z M51.2,341.3c0-2.3-0.9-4.4-2.5-6
				s-3.8-2.5-6-2.5c-14.1,0-25.6-11.5-25.6-25.6v-85.3c0-14.1,11.5-25.6,25.6-25.6h162.1v34.1c0,23.6,19.1,42.6,42.7,42.7h42.7v34.1
				c0,14.1-11.5,25.6-25.6,25.6H93.9c-0.1,0-0.2,0.1-0.3,0.1c-0.6,0.1-1.2,0.2-1.7,0.3c-0.5,0.1-1,0.2-1.5,0.4
				c-0.4,0.2-0.8,0.5-1.2,0.8c-0.6,0.3-1.1,0.7-1.5,1.2c-0.1,0.1-0.2,0.1-0.2,0.2L51.2,378V341.3z M409.6,273.1v153.6H102.4v-76.8
				h162.1c23.6,0,42.6-19.1,42.7-42.7v-34.1H409.6L409.6,273.1z M384,494.9H128c-14.1,0-25.6-11.5-25.6-25.6v-25.6h307.2v25.6
				C409.6,483.5,398.1,494.9,384,494.9z M494.9,230.4c0,14.1-11.5,25.6-25.6,25.6c-2.3,0-4.4,0.9-6,2.5s-2.5,3.8-2.5,6v36.7
				L424.6,259c-0.1-0.1-0.2-0.1-0.2-0.2c-1.6-1.5-3.7-2.5-5.9-2.7c-0.1,0-0.2-0.1-0.3-0.1H247.5c-14.1,0-25.6-11.5-25.6-25.6v-85.3
				c0-14.1,11.5-25.6,25.6-25.6h221.9c14.1,0,25.6,11.5,25.6,25.6L494.9,230.4L494.9,230.4z"/>
			<path class="st3" d="M273.1,153.6c-18.9,0-34.1,15.3-34.1,34.1s15.3,34.1,34.1,34.1s34.1-15.3,34.1-34.1S291.9,153.6,273.1,153.6
				z M273.1,204.8c-9.4,0-17.1-7.6-17.1-17.1s7.6-17.1,17.1-17.1s17.1,7.6,17.1,17.1C290.1,197.2,282.5,204.8,273.1,204.8z"/>
			<path class="st3" d="M358.4,153.6c-18.9,0-34.1,15.3-34.1,34.1s15.3,34.1,34.1,34.1c18.9,0,34.1-15.3,34.1-34.1
				S377.2,153.6,358.4,153.6z M358.4,204.8c-9.4,0-17.1-7.6-17.1-17.1s7.6-17.1,17.1-17.1s17.1,7.6,17.1,17.1
				S367.8,204.8,358.4,204.8z"/>
			<path class="st3" d="M443.7,153.6c-18.9,0-34.1,15.3-34.1,34.1s15.3,34.1,34.1,34.1c18.9,0,34.1-15.3,34.1-34.1
				C477.8,168.9,462.6,153.6,443.7,153.6z M443.7,204.8c-9.4,0-17.1-7.6-17.1-17.1s7.6-17.1,17.1-17.1s17.1,7.6,17.1,17.1
				C460.8,197.2,453.2,204.8,443.7,204.8z"/>
		</g>
	</g>
</g>
</svg>
