<?xml version="1.0" encoding="utf-8"?>
<!-- Generator: Adobe Illustrator 21.1.0, SVG Export Plug-In . SVG Version: 6.00 Build 0)  -->
<svg version="1.1" id="Capa_1" xmlns="http://www.w3.org/2000/svg" xmlns:xlink="http://www.w3.org/1999/xlink" x="0px" y="0px"
	 viewBox="0 0 512 512" style="enable-background:new 0 0 512 512;" xml:space="preserve">
<style type="text/css">
	.st0{fill:#DCDCDC;}
	.st1{fill:#FFFFFF;}
	.st2{fill:#F9F9F9;}
	.st3{fill:#774B9E;}
</style>
<g>
	<polygon class="st0" points="426.8,480.4 460.8,446.2 477.9,463.3 477.9,36.6 426.8,36.6 	"/>
	<polygon class="st1" points="34.1,463.3 68.3,446.2 85.3,463.3 85.3,36.6 34.1,36.6 	"/>
	<polygon class="st2" points="63,446.2 108.3,497.4 153.6,446.2 210.7,497.4 265.3,446.2 310.5,497.4 355.8,446.2 401.1,497.4 
		443.8,463.3 452.3,463.3 452.3,36.6 59.7,36.6 59.7,463.3 	"/>
	<path class="st1" d="M477.9,11H34.1C20,11,8.5,22.5,8.5,36.6S20,62.2,34.1,62.2V36.6h443.7v25.6c14.1,0,25.6-11.5,25.6-25.6
		S492,11,477.9,11z"/>
	<g>
		<path class="st3" d="M477.9,70.8h-8.5V45.2H42.7v25.6h-8.5C15.3,70.8,0,55.5,0,36.6S15.3,2.5,34.1,2.5h443.7
			c18.9,0,34.1,15.3,34.1,34.1S496.8,70.8,477.9,70.8z M25.6,28.1h460.8v23.3c6.7-3.9,10-11.7,8-19.2s-8.8-12.6-16.5-12.6H34.1
			c-7.7,0-14.5,5.2-16.5,12.6c-2,7.5,1.3,15.3,8,19.2C25.6,51.4,25.6,28.1,25.6,28.1z"/>
		<path class="st3" d="M409.6,509.5l-51.2-51.2l-51.2,51.2L256,458.3l-51.2,51.2l-51.2-51.2l-51.2,51.2l-51.2-51.2l-25.6,25.6V190.2
			c0-4.7,3.8-8.5,8.5-8.5s8.5,3.8,8.5,8.5v252.5l8.5-8.5l51.2,51.2l51.2-51.2l51.2,51.2l51.2-51.2l51.2,51.2l51.2-51.2l51.2,51.2
			l51.2-51.2l8.5,8.5V45.2H42.7V122c0,4.7-3.8,8.5-8.5,8.5s-8.5-3.8-8.5-8.5V28.1h460.8v455.8l-25.6-25.6L409.6,509.5z"/>
		<circle class="st3" cx="34.1" cy="156.1" r="8.5"/>
		<path class="st3" d="M375.5,360.9h-128c-4.7,0-8.5-3.8-8.5-8.5s3.8-8.5,8.5-8.5h128c4.7,0,8.5,3.8,8.5,8.5
			S380.3,360.9,375.5,360.9z"/>
		<path class="st3" d="M418.1,360.9c-2.9,0-5.5-1.4-7.1-3.8s-1.9-5.4-0.7-8c0.4-1,1-2,1.8-2.8c2.5-2.4,6.1-3.1,9.3-1.8
			c1,0.4,2,1,2.8,1.8s1.4,1.8,1.8,2.8c1.1,2.6,0.8,5.6-0.7,8C423.8,359.5,421,360.9,418.1,360.9L418.1,360.9z"/>
		<path class="st3" d="M418.1,241.4h-128c-4.7,0-8.5-3.8-8.5-8.5s3.8-8.5,8.5-8.5h128c4.7,0,8.5,3.8,8.5,8.5
			C426.8,237.6,422.8,241.4,418.1,241.4z"/>
		<path class="st3" d="M418.1,301.2h-85.3c-4.7,0-8.5-3.8-8.5-8.5s3.8-8.5,8.5-8.5h85.3c4.7,0,8.5,3.8,8.5,8.5
			S422.8,301.2,418.1,301.2z"/>
		<path class="st3" d="M264.5,301.2h-17.1c-4.7,0-8.5-3.8-8.5-8.5s3.8-8.5,8.5-8.5h17.1c4.7,0,8.5,3.8,8.5,8.5
			S269.3,301.2,264.5,301.2z"/>
		<path class="st3" d="M375.5,181.7h-128c-4.7,0-8.5-3.8-8.5-8.5s3.8-8.5,8.5-8.5h128c4.7,0,8.5,3.8,8.5,8.5
			S380.3,181.7,375.5,181.7z"/>
		<path class="st3" d="M418.1,181.7c-2.3,0-4.5-0.9-6.1-2.5s-2.5-3.8-2.5-6.1c0-4.7,3.8-8.5,8.5-8.5s8.5,3.8,8.5,8.5
			c0,2.3-0.9,4.5-2.5,6.1C422.6,180.8,420.4,181.7,418.1,181.7L418.1,181.7z"/>
		<path class="st3" d="M256,241.4c-2.9,0-5.5-1.4-7.1-3.8c-1.6-2.4-1.9-5.4-0.7-8c0.4-1,1-2,1.8-2.8c2-2.1,4.9-3,7.7-2.4
			c2.8,0.6,5.1,2.5,6.2,5.2c1.1,2.6,0.8,5.6-0.7,8C261.5,240,258.9,241.5,256,241.4L256,241.4z"/>
		<path class="st3" d="M298.8,301.2c-1.1,0-2.2-0.2-3.2-0.7c-1-0.4-2-1-2.8-1.8c-1.6-1.6-2.5-3.8-2.5-6.1c0-2.3,0.9-4.4,2.5-6.1
			c0.8-0.8,1.8-1.4,2.8-1.8c3.2-1.3,6.9-0.6,9.3,1.8c1.6,1.6,2.4,3.8,2.5,6.1c0,2.3-0.9,4.5-2.5,6.1
			C303.1,300.3,300.9,301.2,298.8,301.2z"/>
		<path class="st3" d="M136.5,320.1c-23.6,0-42.6-19.1-42.7-42.7c0-4.7,3.8-8.5,8.5-8.5s8.5,3.8,8.5,8.5c0,10.7,6.7,20.4,16.8,24
			s21.4,0.7,28.4-7.5c2.2-2.6,3.2-6,2.8-9.4c-0.4-3.8-2.3-7.2-5.3-9.5L109,240.3c-6.7-5.2-10.9-12.9-11.8-21.3
			c-0.9-8,1.6-16.1,6.8-22.2c11.6-13.7,30.4-18.7,47.3-12.5s28,22.2,28,40.1c0,4.7-3.8,8.5-8.5,8.5s-8.5-3.8-8.5-8.5
			c0-10.7-6.7-20.4-16.8-24c-10.1-3.7-21.4-0.7-28.4,7.5c-2.2,2.6-3.2,6-2.8,9.4c0.4,3.8,2.3,7.2,5.3,9.6l44.6,34.7
			c6.6,5.2,10.9,12.8,11.8,21.2c0.9,8-1.6,16.1-6.8,22.2C161,314.6,149.1,320.1,136.5,320.1z"/>
		<path class="st3" d="M136.5,335.3c-2.3,0-4.4-0.9-6-2.5s-2.5-3.8-2.5-6V173.2c0-4.7,3.8-8.5,8.5-8.5s8.5,3.8,8.5,8.5v153.6
			c0,2.3-0.9,4.4-2.5,6C141,334.4,138.8,335.3,136.5,335.3L136.5,335.3z"/>
		<path class="st3" d="M34.1,104.9c-1.1,0-2.2-0.2-3.2-0.6c-1-0.5-2-1.1-2.8-1.9s-1.4-1.8-1.8-2.8c-0.5-1-0.7-2.1-0.7-3.2
			c0-2.3,0.9-4.4,2.5-6.1c3.4-3.2,8.7-3.2,12.1,0c0.4,0.4,0.7,0.9,1,1.4c0.3,0.4,0.6,0.9,0.8,1.4s0.4,1,0.5,1.5
			c0.1,0.6,0.2,1.1,0.2,1.7c0,2.3-0.9,4.4-2.5,6.1C38.6,104,36.4,104.9,34.1,104.9L34.1,104.9z"/>
		<path class="st3" d="M435.3,96.4c0-4.7,3.8-8.5,8.5-8.5l0,0c4.7,0,8.5,3.8,8.5,8.5l0,0c0,4.7-3.8,8.5-8.5,8.5l0,0
			C439,104.9,435.3,101.1,435.3,96.4L435.3,96.4z M401.1,96.4c0-4.7,3.8-8.5,8.5-8.5l0,0c4.7,0,8.5,3.8,8.5,8.5l0,0
			c0,4.7-3.8,8.5-8.5,8.5l0,0C404.9,104.9,401.1,101.1,401.1,96.4L401.1,96.4z M366.9,96.4c0-4.7,3.8-8.5,8.5-8.5l0,0
			c4.7,0,8.5,3.8,8.5,8.5l0,0c0,4.7-3.8,8.5-8.5,8.5l0,0C370.8,104.9,366.9,101.1,366.9,96.4L366.9,96.4z M332.8,96.4
			c0-4.7,3.8-8.5,8.5-8.5l0,0c4.7,0,8.5,3.8,8.5,8.5l0,0c0,4.7-3.8,8.5-8.5,8.5l0,0C336.6,104.9,332.8,101.1,332.8,96.4L332.8,96.4z
			 M298.8,96.4c0-4.7,3.8-8.5,8.5-8.5l0,0c4.7,0,8.5,3.8,8.5,8.5l0,0c0,4.7-3.8,8.5-8.5,8.5l0,0C302.5,104.9,298.8,101.1,298.8,96.4
			L298.8,96.4z M264.5,96.4c0-4.7,3.8-8.5,8.5-8.5l0,0c4.7,0,8.5,3.8,8.5,8.5l0,0c0,4.7-3.8,8.5-8.5,8.5l0,0
			C268.4,104.9,264.5,101.1,264.5,96.4z M230.4,96.4c0-4.7,3.8-8.5,8.5-8.5l0,0c4.7,0,8.5,3.8,8.5,8.5l0,0c0,4.7-3.8,8.5-8.5,8.5
			l0,0C234.2,104.9,230.4,101.1,230.4,96.4z M196.3,96.4c0-4.7,3.8-8.5,8.5-8.5l0,0c4.7,0,8.5,3.8,8.5,8.5l0,0
			c0,4.7-3.8,8.5-8.5,8.5l0,0C200.1,104.9,196.3,101.1,196.3,96.4z M162.1,96.4c0-4.7,3.8-8.5,8.5-8.5l0,0c4.7,0,8.5,3.8,8.5,8.5
			l0,0c0,4.7-3.8,8.5-8.5,8.5l0,0C166,104.9,162.1,101.1,162.1,96.4z M128,96.4c0-4.7,3.8-8.5,8.5-8.5l0,0c4.7,0,8.5,3.8,8.5,8.5
			l0,0c0,4.7-3.8,8.5-8.5,8.5l0,0C131.8,104.9,128,101.1,128,96.4z M93.9,96.4c0-4.7,3.8-8.5,8.5-8.5l0,0c4.7,0,8.5,3.8,8.5,8.5l0,0
			c0,4.7-3.8,8.5-8.5,8.5l0,0C97.7,104.9,93.9,101.1,93.9,96.4z M59.7,96.4c0-4.7,3.8-8.5,8.5-8.5l0,0c4.7,0,8.5,3.8,8.5,8.5l0,0
			c0,4.7-3.8,8.5-8.5,8.5l0,0C63.6,104.9,59.7,101.1,59.7,96.4z"/>
		<path class="st3" d="M477.9,104.9c-1.1,0-2.2-0.2-3.2-0.6c-1-0.5-2-1.1-2.8-1.9s-1.4-1.8-1.8-2.8c-0.5-1-0.7-2.1-0.7-3.2
			c0-0.6,0.1-1.1,0.2-1.7c0.1-0.5,0.3-1.1,0.5-1.5c0.2-0.5,0.4-1,0.8-1.4c0.3-0.5,0.7-0.9,1-1.4c0.8-0.8,1.8-1.4,2.8-1.8
			c2.1-0.9,4.4-0.9,6.5,0c1,0.4,2,1,2.8,1.8c0.4,0.4,0.7,0.9,1,1.4c0.3,0.4,0.6,0.9,0.8,1.4c0.2,0.5,0.4,1,0.5,1.5
			c0.1,0.6,0.2,1.1,0.2,1.7c0,1.1-0.2,2.2-0.7,3.2c-0.4,1-1,2-1.8,2.8C482.3,104,480.1,104.9,477.9,104.9z"/>
	</g>
</g>
</svg>
