<?xml version="1.0" encoding="utf-8"?>
<!-- Generator: Adobe Illustrator 21.1.0, SVG Export Plug-In . SVG Version: 6.00 Build 0)  -->
<svg version="1.1" id="Capa_1" xmlns="http://www.w3.org/2000/svg" xmlns:xlink="http://www.w3.org/1999/xlink" x="0px" y="0px"
	 viewBox="0 0 512 512" style="enable-background:new 0 0 512 512;" xml:space="preserve">
<style type="text/css">
	.st0{fill:#DCDCDC;}
	.st1{fill:#F9F9F9;}
	.st2{fill:#FFFFFF;}
	.st3{fill:#41767F;}
	.st4{fill:#31595F;}
	.st5{fill:#774B9E;}
</style>
<g>
	<path class="st0" d="M460.7,217.6c0,113.1-91.7,204.8-204.8,204.8c-4.4,0-8.6-0.2-12.8-0.4c-107.8-7-191.6-96.4-191.6-204.4
		S135.4,20.2,243.2,13.2c4.2-0.3,8.4-0.4,12.8-0.4C369,12.8,460.7,104.5,460.7,217.6z"/>
	<path class="st1" d="M435.1,217.6c0-112.9-85.9-204.4-192-204.4s-192,91.5-192,204.4S137,422,243.1,422S435.1,330.4,435.1,217.6z"
		/>
	<path class="st0" d="M332.7,354.5H326c-19.2,0-37.7,7.7-51.3,21.2c-6.2,6.2-11.2,13.5-14.8,21.4h-8.1c-11.7-26-37.6-42.7-66-42.7
		H128c4.1-3.6,7.9-7.4,11.5-11.5c6.6-8.4,6.9-16.7-2.1-23.1c-7.7-4.2-14.9-9.4-21.2-15.5c-14.4-17.1-17.2-39.2-24.1-59.6
		c-3.4-10.4-5.9-20.7-15.6-27.1c-4.7-3.2-10.1-5.5-14.7-8.8c-4.8-3.1-8.2-8-9.3-13.7V195c8.3-73.1,55.3-136.2,123-165.1
		c15.6,5.7,32.5,7.3,48.1,13c4.5,1.4,8.5,3.8,11.9,7.1c4.5,5,5.8,12.1,3.4,18.4c-3,6.2-8.2,11.1-14.6,13.7
		c-9.8,4.9-19.5,10.4-29.6,14.8c-8.7,2.5-16.2,8-21.2,15.4c-4.9,8.2-4,18.6,2.2,25.9c5.7,4.9,13.2,7.2,20.7,6.5
		c10.8-0.2,21.4-0.2,32.3,0.3c19.8,0.3,39.6,2.5,59,6.8c6.1,1,11.7,4.1,15.8,8.8c3,4.4,3.8,9.9,2.2,15c-3,9.7-11.8,12.6-20.1,16
		c-12.5,5.1-25,9.9-37.2,15.6c-10.7,5.5-20.7,12.5-29.6,20.7c-6,5.7-12.9,10.3-20.6,13.6c-8.7,2-17.7,3-26.6,3
		c-11,1.3-27.4,0.1-33.2,11.8c-2.5,5.6-3,12-1.4,17.9c4.1,13,14.5,23,27.6,26.7c6.5,2.5,13.1,4.1,19.6,6.3
		c8.3,2.6,15.9,6.3,23.9,9.7c7.4,4,16.4,3.7,23.6-0.9c6.7-4.7,11.3-12,18.9-15.4c9.2-3,19.2-2.3,28,1.8c13.5,3.3,26.1,9.7,36.6,18.9
		C322.7,331.4,328.6,342.6,332.7,354.5z"/>
	<path class="st0" d="M460.7,217.6c0.1,50.4-18.5,99-52.2,136.5h-28.2c-47-75.1,13.9-120.7,37.7-136.5c2.6-1.8,5.5-3.2,8.4-4.3
		c3.3-1.2,6.7-2.1,10.2-2.6c7.9-1.1,16-1,23.9,0.3C460.7,213.3,460.7,215.4,460.7,217.6z"/>
	<path class="st1" d="M438.9,217.6c0.1,50.4-18.5,99-52.2,136.5h-6.4c-47-75.1,13.9-120.7,37.7-136.5c2.6-1.8,5.5-3.2,8.4-4.3
		c3.3-1.2,6.7-2.1,10.2-2.6l2.1,0.3C438.9,213.3,438.9,215.4,438.9,217.6z"/>
	<path class="st2" d="M103.5,354h3.2c-1,0-2,0.1-3.1,0.2c15.3,17,33.3,31.4,53.3,42.5h25.6C110.1,356.9,68.8,277.1,78.1,195v-0.1
		c11-98.8,91.4-175.4,190.5-181.7c-4.2-0.3-8.5-0.4-12.7-0.4c-4.3,0-8.6,0.2-12.8,0.4C144,19.5,63.6,96.1,52.5,194.9v0.1
		C46,252.9,64.5,310.8,103.5,354z"/>
	<path class="st3" d="M252,456.4c-3.6,8-8.7,15.2-14.8,21.4c-13.6,13.6-32,21.3-51.3,21.2H81.1C41,499,8.6,466.5,8.6,426.5
		S41.1,354,81.1,354h104.8c28.5,0,54.3,16.7,66,42.7l-80.7,8.5H81.1c-11.8,0-21.3,9.6-21.3,21.3c0,11.8,9.6,21.3,21.3,21.3h90.1
		L252,456.4z"/>
	<path class="st0" d="M315.5,97.8c0.4,5.7-2.6,11-7.5,13.8c-10.8,5.7-24.1-5.6-31.4-12.5c-2.6-2.1-4.6-4.8-5.8-7.9
		c-1.2-4.1-0.8-8.5,1.3-12.3c1.3-2.6,2.9-5,4.9-7.1c4.4-5.1,11.4-7,17.7-4.8c3,1.8,5.5,4.2,7.3,7.2c2.3,3.3,4.7,6.6,7,9.9
		C312.4,88.1,314.7,92.8,315.5,97.8z"/>
	<path class="st1" d="M187.7,354H76.8c-37.7,0-68.3,30.6-68.3,68.3v8.5c0,37.7,30.6,68.3,68.3,68.3h110.9
		c37.7,0,68.3-30.6,68.3-68.3v-8.5C256,384.6,225.4,354,187.7,354z M183.5,447.9H81.1c-11.8,0-21.3-9.6-21.3-21.3
		c0-11.8,9.6-21.3,21.3-21.3h102.4c11.8,0,21.3,9.6,21.3,21.3S195.2,447.9,183.5,447.9z"/>
	<path class="st0" d="M435.1,354H324.2c-37.7,0-68.3,30.6-68.3,68.3v8.5c0,37.7,30.6,68.3,68.3,68.3h110.9
		c37.7,0,68.3-30.6,68.3-68.3v-8.5C503.4,384.6,472.8,354,435.1,354z M328.4,447.9c-11.8,0-21.3-9.6-21.3-21.3
		c0-11.8,9.6-21.3,21.3-21.3h102.4c11.8,0,21.3,9.6,21.3,21.3c0,11.8-9.6,21.3-21.3,21.3H328.4z"/>
	<path class="st1" d="M409.5,354h-85.3c-37.7,0-68.3,30.6-68.3,68.3v8.5c0,37.7,30.6,68.3,68.3,68.3h85.3
		c37.7,0,68.3-30.6,68.3-68.3v-8.5C477.8,384.6,447.2,354,409.5,354z M430.8,447.9h-128c-11.8,0-21.3-9.6-21.3-21.3
		c0-11.8,9.6-21.3,21.3-21.3h128c11.8,0,21.3,9.6,21.3,21.3C452.2,438.4,442.6,447.9,430.8,447.9z"/>
	<path class="st4" d="M183.5,396.8H81.1c-16.5,0.1-29.8,13.4-29.9,29.9c0,16.5,13.4,29.9,29.9,29.9h102.4
		c16.5-0.1,29.8-13.4,29.9-29.9c0-7.9-3.1-15.5-8.7-21.1C199,399.9,191.4,396.8,183.5,396.8z M183.5,447.9H81.1
		c-11.8,0-21.3-9.6-21.3-21.3c0-11.8,9.6-21.3,21.3-21.3h102.4c11.8,0,21.3,9.6,21.3,21.3S195.2,447.9,183.5,447.9z"/>
	<path class="st0" d="M349.8,426.6c0,7.9-3.2,15.5-8.8,21.1l-0.3,0.3c-5.5,5.5-13,8.5-20.8,8.5H192c-12.1,0-23-7.2-27.6-18.4
		c-4.6-11.2-2-24,6.5-32.5l0.3-0.3c5.5-5.5,13-8.5,20.8-8.5h128C336.4,396.9,349.7,410.1,349.8,426.6z"/>
	<g>
		<path class="st2" d="M8.5,426.6v4.3c0,37.7,30.6,68.3,68.3,68.3h4.3C41,499.1,8.6,466.6,8.5,426.6z"/>
		<path class="st2" d="M81.1,354h-4.3c-37.7,0-68.3,30.6-68.3,68.3v4.3C8.5,386.5,41,354,81.1,354z"/>
		<path class="st2" d="M196.8,447.9c1.2,1.1,2.4,2.2,3.8,3.1c1-0.7,2-1.5,2.9-2.4L196.8,447.9z"/>
		<path class="st2" d="M85.8,447.9H81c-11.8,0-21.3-9.6-21.3-21.3c0-11.8,9.6-21.3,21.3-21.3h4.8c5.5-5.5,13-8.5,20.8-8.5H81.1
			c-16.5,0.1-29.8,13.4-29.9,29.9c0,16.5,13.4,29.9,29.9,29.9h25.6C98.9,456.4,91.4,453.4,85.8,447.9z"/>
		<path class="st2" d="M217.6,456.4c-1.4,0-2.9-0.2-4.3-0.4c-1.4,0.2-2.8,0.4-4.3,0.4H217.6z"/>
		<path class="st2" d="M200.6,451c3.8,2.6,8.2,4.4,12.7,5c3.1-0.4,6-1.4,8.8-2.7L200.6,451z"/>
		<path class="st2" d="M197.9,404.4c-0.3,0.3-0.7,0.6-1.1,0.9l2.5-0.3L197.9,404.4z"/>
		<path class="st2" d="M187.7,426.6c0-7.9,3.2-15.5,8.8-21.1l0.3-0.3h-25.6l-0.3,0.3c-5.7,5.6-8.8,13.3-8.8,21.3s3.3,15.6,9,21.2
			h25.6C191,442.4,187.7,434.6,187.7,426.6z"/>
		<path class="st2" d="M42.7,217.6C42.9,140.8,84.3,70,151,32c32.1-18,68.2-27.5,105-27.7v17.1c-33.8,0.2-67,9-96.5,25.5
			C98,81.8,60,146.9,59.7,217.6H42.7z"/>
	</g>
	<path class="st5" d="M371.1,103.6c3.3,3.2,8.7,3.2,12-0.1c3.3-3.3,3.3-8.6,0.1-12c-7.3-7.3-15.2-14-23.7-20c-2.5-2-5.9-2.4-8.8-1.1
		s-4.9,4.1-5.1,7.3c-0.2,3.2,1.4,6.2,4.1,7.8C357.4,90.9,364.5,96.9,371.1,103.6z"/>
	<path class="st5" d="M413.6,180.1c0.9,3.8,4.3,6.6,8.3,6.6c0.7,0,1.3-0.1,2-0.2c4.6-1.1,7.4-5.7,6.3-10.2
		c-5-21.3-14-41.5-26.5-59.6c-1.7-2.6-4.7-4-7.7-3.8s-5.8,2.1-7.1,4.9c-1.3,2.8-1,6.1,0.8,8.6C400.9,142.6,409,160.8,413.6,180.1z"
		/>
	<path class="st5" d="M430.8,345.5h-4.4c27.8-36.9,42.8-81.8,42.8-128c0-2.4,0-4.9-0.2-6.8C467,151.6,440.7,95.9,396.1,57
		c-10-8.8-20.8-16.6-32.3-23.3c-17.3-10.3-35.9-18-55.4-22.9c-17.2-4.4-35-6.7-52.7-6.7c-28.5,0.3-56.6,6-82.9,16.9
		c-0.8,0.2-1.7,0.6-2.4,1.1c-6.7,2.9-13.3,6.1-19.6,9.7C119,50,92.2,76.1,73.3,107.6l-4.6,7.6c-1.1,2.1-1.3,4.5-0.6,6.7
		c0.7,2.2,2.3,4,4.3,5.1c4.1,2.1,9.1,0.5,11.3-3.6l4.3-7c17.4-29,42-53,71.5-69.7c5.4-3.1,11-5.9,16.7-8.4c7.2,2.3,14.5,4,21.6,5.6
		c7.7,1.5,15.4,3.5,22.9,6c3.2,0.9,6.1,2.5,8.5,4.6c2.2,2.4,2.8,5.9,1.7,9c-2.3,4.1-6,7.3-10.4,8.9c-3.5,1.7-7,3.5-10.6,5.2
		c-6.1,3.1-12.5,6.3-18.8,8.9l-1,0.4c-9.9,3.1-18.5,9.5-24.2,18.2c-6.9,11.3-5.4,25.8,3.6,35.5c7.3,6.5,17,9.7,26.8,8.8
		c12.6-0.2,22.4-0.1,31.9,0.3c19.3,0.2,38.4,2.4,57.3,6.4c4.1,0.6,7.9,2.5,11,5.4c1.4,2.1,1.7,4.6,1,7c-1.5,4.7-5.9,6.6-13.5,9.6
		l-10,3.9c-9.6,3.8-19.6,7.7-29.2,12.1c-11.4,5.7-22,12.9-31.6,21.3c-5.2,4.9-11.2,8.9-17.7,11.7c-5,1.4-10.1,2-15.2,1.9
		c-3.2,0.1-6.5,0.2-9.6,0.6c-1.8,0.2-3.7,0.3-5.7,0.5c-11.4,0.8-27.1,1.9-34.1,15.6c-3.5,7.3-4.2,15.6-2,23.4
		c3.7,14.4,14.8,25.1,33,31.9c4.2,1.6,8.5,2.8,12.8,4.1c2.4,0.7,4.8,1.4,7.2,2.2c5.9,1.9,11.5,4.3,17.4,6.8l5.8,2.4
		c10.1,5.1,22.1,4.5,31.6-1.6c3.1-2.2,6-4.7,8.6-7.4c2.6-2.8,5.6-5.2,8.9-7c7.4-1.9,15.2-1.2,22,2.1c12.1,2.8,23.5,8.4,33.1,16.3
		c5.5,6.8,9.8,14.5,12.7,22.7c0.6,1.3,1.1,2.6,1.7,3.8c-20.6,0.6-40.1,9.1-54.7,23.6c-5,5.1-9.4,10.7-13,16.9
		c-14.4-25.1-41.1-40.6-70-40.7h-38c3.8-5,5.5-11.3,4.8-17.6c-1.1-6.4-4.8-12-10.3-15.5c-2.5-1.8-5.1-3.3-7.6-4.9
		c-4.5-2.4-8.6-5.5-12.1-9.2c-8.8-12.1-14.8-25.9-17.6-40.6c-1.5-5.5-3-10.9-4.8-16.3l-1-3.1c-2.4-11.4-8.8-21.5-18-28.5
		c-2.4-1.6-4.8-2.9-7.3-4.3c-2.5-1.3-4.9-2.7-7.2-4.3c-2.5-1.6-4.5-4-5.5-6.8c0.5-3.1,1.1-6.3,1.5-9.4c0.5-4.6-2.5-8.8-7-9.8
		c-2.2-0.5-4.6,0-6.5,1.3s-3.1,3.4-3.4,5.7c-0.4,3.2-1,6.4-1.5,9.6c-0.1,0.3-0.1,0.6-0.1,0.9c-0.4,2.4-0.6,4.7-0.7,7.1l-0.9,17.8
		c0,46.2,15,91.1,42.8,128h-4.4C36.3,345.5,0,381.9,0,426.6s36.3,81.1,81.1,81.1h104.8c21.5,0.1,42.2-8.5,57.3-23.7
		c5-5.1,9.4-10.7,13-16.9c14.4,25.1,41.1,40.6,70,40.7H431c44.8,0,81.1-36.3,81.1-81.1C512,381.9,475.6,345.5,430.8,345.5z
		 M385.2,345.5c-26.6-45.8-14.1-86.5,37.5-120.9c2.1-1.4,4.3-2.5,6.6-3.3c7.3-2.4,15-3.3,22.7-2.6c-0.3,46.6-17.2,91.6-47.6,126.8
		H385.2z M321.1,307c-11.5-10-25.2-17-40-20.5c-10.8-4.7-22.9-5.2-34-1.4c-5.2,2.6-9.9,6-13.9,10.2c-2,2-4.1,3.9-6.4,5.6
		c-4.7,2.9-10.7,2.9-15.4,0l-5.6-2.4c-6-2.6-12.2-5.2-18.9-7.4c-2.5-0.8-5.1-1.6-7.6-2.3c-3.9-1.1-7.8-2.3-11.6-3.7
		c-13-4.9-20.1-11.3-22.4-20.2c-1.1-3.8-0.9-7.8,0.7-11.4c2.4-4.8,10.2-5.7,20.1-6.3c2.3-0.2,4.4-0.3,6.5-0.5
		c2.7-0.3,5.5-0.4,8.4-0.5c6.8,0.1,13.6-0.9,20.1-2.8c8.6-3.4,16.5-8.4,23.2-14.7c8.4-7.5,17.7-13.9,27.7-18.9
		c9.2-4.3,18.9-8,28.3-11.7l10-3.9c10.7-2.6,19.5-10.2,23.5-20.4c2.4-7.6,1.1-15.8-3.5-22.3c-5.3-6.2-12.5-10.4-20.5-11.8
		c-19.9-4.3-40.3-6.7-60.7-6.9c-9.8-0.4-19.9-0.5-32.9-0.3c-5.2,0.7-10.4-0.7-14.5-3.9c-3.4-4.3-3.7-10.2-0.9-14.8
		c3.1-5.3,7.9-7.6,16.1-11l1-0.4c6.8-2.9,13.4-6.2,19.8-9.4c3.4-1.7,6.8-3.4,10.2-5.1c8.3-3.4,15-9.8,18.8-17.9
		c3.6-9.2,1.6-19.7-5.1-27c-4.3-4.2-9.5-7.3-15.3-9.1c-7-2.3-14-4.2-21.2-5.7c16.6-4.4,33.7-6.7,50.9-6.9c16.4,0,32.7,2,48.5,6.1
		c17.9,4.5,35.1,11.6,51,21.1c10.6,6.1,20.5,13.3,29.6,21.4c38.4,33.6,62.2,80.8,66.4,131.7c-9.5-0.7-19,0.6-27.9,3.7
		c-3.6,1.3-7.1,3-10.2,5.2c-55.7,37.1-72.1,84.7-47.4,135.1h-24.7c0-1.2-0.2-2.5-0.7-3.6c-1-2.1-2-4.4-3-6.8
		C333.7,324.9,328.2,315.4,321.1,307z M334.7,411.3c0.1,0.1,0.1,0.1,0.2,0.1c4.1,4,6.4,9.5,6.4,15.2s-2.3,11.2-6.4,15.2
		c-0.1,0.1-0.1,0.1-0.2,0.1c-4,3.8-9.2,6-14.8,6H192c-5.5,0-10.8-2.1-14.8-6c-0.1-0.1-0.1-0.1-0.2-0.1c-4.1-4-6.4-9.5-6.4-15.2
		s2.3-11.2,6.4-15.2c0.1-0.1,0.1-0.1,0.2-0.1c4-3.8,9.2-6,14.8-6h128C325.4,405.3,330.7,407.4,334.7,411.3z M355.9,413.9h83.4
		c7.1,0,12.8,5.7,12.8,12.8c0,7.1-5.7,12.8-12.8,12.8h-83.4C359.1,431.1,359.1,422,355.9,413.9z M156,439.4H81.1
		c-7.1,0-12.8-5.7-12.8-12.8c0-7.1,5.7-12.8,12.8-12.8H156C152.8,422,152.8,431.1,156,439.4z M59.7,217.6v-0.5c2,1.2,4,2.4,5.9,3.5
		c2.1,1.1,4.1,2.3,6.1,3.6c5.9,5,9.8,11.9,11.2,19.5l1.1,3.3c1.7,5.1,3.1,10.3,4.6,15.5c3.4,17,10.6,33.1,21,47
		c4.7,5.2,10.2,9.5,16.3,12.8c2.2,1.3,4.4,2.7,6.6,4.2c1.5,0.9,2.7,2.3,3.3,4c-0.1,2.6-1.2,5-2.9,6.8c-2,2.4-4.2,4.7-6.6,6.7
		c-0.5,0.5-1.1,1-1.6,1.5h-17.1C76.7,309.9,59.7,264.5,59.7,217.6z M185.9,490.6H81.1c-35.3,0-64-28.7-64-64s28.7-64,64-64h104.8
		c20.1,0.1,38.9,9.5,51,25.6H192c-8.7,0-17.1,3-23.8,8.5H81.1c-16.5,0-29.9,13.4-29.9,29.9s13.4,29.9,29.9,29.9h87.1
		c6.7,5.5,15.2,8.5,23.8,8.5h44.8c-1.7,2.4-3.7,4.7-5.7,6.8C219.1,483.9,202.8,490.6,185.9,490.6z M476.1,471.9
		c-12,12-28.2,18.8-45.2,18.8H326c-20.1-0.1-38.9-9.5-51-25.6h44.9c8.7,0,17.1-3,23.8-8.5h95.6c16.5,0,29.9-13.4,29.9-29.9
		s-13.4-29.9-29.9-29.9h-95.6c-6.7-5.5-15.2-8.5-23.8-8.5h-44.8c1.7-2.4,3.7-4.7,5.7-6.8c12-12,28.3-18.7,45.2-18.8h104.8
		c25.9,0,49.2,15.6,59.1,39.5C499.8,426,494.3,453.5,476.1,471.9z"/>
	<path class="st5" d="M316,79.3l-7-9.9c-2.6-4.2-6.2-7.6-10.5-9.9c-9.6-3.9-20.6-1.3-27.5,6.5c-2.7,2.7-4.9,5.9-6.6,9.4
		c-3,5.8-3.6,12.6-1.7,18.9c1.7,4.4,4.5,8.2,8.1,11.3c5.3,4.9,17.6,16.3,30.8,16.3c3.6,0,7.2-0.9,10.4-2.6c8-4.3,12.7-13,11.9-22
		C323,90.5,320.3,84.4,316,79.3z M304,104.1c-2.3,1.2-8.1,1.4-21.6-11.2c-1.5-1.2-2.7-2.7-3.6-4.4c-0.4-2-0.1-4,0.9-5.8
		c0.9-1.8,2-3.4,3.4-4.8c2.6-2.6,6.1-4,7.9-3.1c1.6,1.2,3,2.8,4,4.5l7,9.9c2.3,2.7,4,5.9,4.9,9.4C307.1,100.8,306,103,304,104.1z"/>
	<path class="st5" d="M54.6,147.8c-0.8,2.2-0.7,4.6,0.2,6.7l0.9,1.4c0.4,0.5,0.8,0.9,1.3,1.2c0.4,0.4,0.9,0.7,1.3,0.9
		c0.5,0.3,1,0.5,1.6,0.7c2.1,0.6,4.4,0.4,6.4-0.6c1-0.5,1.9-1.2,2.6-2c2.3-2.4,2.8-6,1.4-9c-0.5-1-1.2-1.9-2-2.7s-1.8-1.4-2.8-1.8
		c-2.1-0.8-4.4-0.7-6.5,0.2C57,143.9,55.4,145.8,54.6,147.8z"/>
</g>
</svg>
