<?xml version="1.0" encoding="utf-8"?>
<!-- Generator: Adobe Illustrator 21.1.0, SVG Export Plug-In . SVG Version: 6.00 Build 0)  -->
<svg version="1.1" id="Capa_1" xmlns="http://www.w3.org/2000/svg" xmlns:xlink="http://www.w3.org/1999/xlink" x="0px" y="0px"
	 viewBox="0 0 512 512" style="enable-background:new 0 0 512 512;" xml:space="preserve">
<style type="text/css">
	.st0{fill:#FFFFFF;}
	.st1{fill:#DCDCDC;}
	.st2{fill:#F9F9F9;}
	.st3{fill:#774B9E;}
</style>
<g>
	<polygon class="st0" points="256,396.2 10.1,255.7 103.4,202.7 256,289.9 	"/>
	<polygon class="st1" points="256,9.8 501.9,149.4 256,289.9 	"/>
	<polygon class="st0" points="256,289.5 10.1,149.8 256,9.3 	"/>
	<polygon class="st2" points="453.6,149.4 256,280.2 58.4,149.4 256,19.4 	"/>
	<polygon class="st1" points="256,396.2 501.9,255.7 408.6,202.7 256,289.9 	"/>
	<polygon class="st2" points="251.6,289.9 131.7,218.3 38.4,271.3 251.6,396.2 464.1,270.6 377.2,222.3 	"/>
	<polygon class="st0" points="256,502.7 10.1,362.2 103.4,309.2 256,396.4 	"/>
	<polygon class="st1" points="256,502.7 501.9,362.2 408.6,309.2 256,396.4 	"/>
	<polygon class="st2" points="251.6,396.4 131.7,324.8 38.4,377.8 251.6,502.7 464.1,377.1 377.2,328.8 	"/>
	<g>
		<path class="st3" d="M256,299.6c-1.7,0-3.3-0.4-4.8-1.3L5.3,157.8c-3-1.7-4.9-4.9-4.9-8.4s1.9-6.7,4.9-8.4l125.6-72
			c4.6-2.6,10.5-1,13.1,3.6s1.1,10.5-3.5,13.1l-111,63.7L256,278.8l226.4-129.3L255.9,20.8l-57.7,30.9c-4.7,2.5-10.5,0.7-13.1-4
			c-2.5-4.7-0.8-10.5,3.9-13.1l62.4-33.5c2.9-1.6,6.5-1.5,9.3,0.1l245.9,139.7c3,1.7,4.9,4.9,4.9,8.4s-1.9,6.7-4.9,8.4L260.8,298.3
			C259.3,299.1,257.7,299.6,256,299.6L256,299.6z"/>
		<path class="st3" d="M256,405.8c-1.7,0-3.3-0.4-4.8-1.3L5.3,264.1c-3-1.7-4.9-4.9-4.9-8.4s1.9-6.7,4.9-8.4l93.3-53
			c3-1.7,6.6-1.7,9.6,0L256,278.8l147.8-84.5c3-1.7,6.6-1.7,9.6,0l93.3,53c3,1.7,4.9,4.9,4.9,8.4s-1.9,6.7-4.9,8.4L260.8,404.6
			C259.3,405.4,257.7,405.8,256,405.8z M29.6,255.7L256,385l226.4-129.3l-73.7-41.9l-147.9,84.5c-3,1.7-6.6,1.7-9.6,0l-147.9-84.5
			L29.6,255.7z"/>
		<path class="st3" d="M256,512.1c-1.7,0-3.3-0.4-4.8-1.3L5.3,370.3c-3-1.7-4.9-4.9-4.9-8.4s1.9-6.7,4.9-8.4l93.3-53
			c3-1.7,6.6-1.7,9.6,0L256,385l147.8-84.5c3-1.7,6.6-1.7,9.6,0l93.3,53c3,1.7,4.9,4.9,4.9,8.4s-1.9,6.7-4.9,8.4L260.8,510.8
			C259.3,511.7,257.7,512.1,256,512.1L256,512.1z M29.6,362L256,491.3L482.4,362l-73.7-41.9l-147.9,84.5c-3,1.7-6.6,1.7-9.6,0
			l-147.9-84.5L29.6,362z"/>
		<circle class="st3" cx="164.7" cy="58.1" r="9.7"/>
	</g>
</g>
</svg>
