<?xml version="1.0" encoding="utf-8"?>
<!-- Generator: Adobe Illustrator 21.1.0, SVG Export Plug-In . SVG Version: 6.00 Build 0)  -->
<svg version="1.1" id="Capa_1" xmlns="http://www.w3.org/2000/svg" xmlns:xlink="http://www.w3.org/1999/xlink" x="0px" y="0px"
	 viewBox="0 0 512 512" style="enable-background:new 0 0 512 512;" xml:space="preserve">
<style type="text/css">
	.st0{fill:#DCDCDC;}
	.st1{fill:#F9F9F9;}
	.st2{fill:#FFFFFF;}
	.st3{fill:#955BA5;}
	.st4{fill:#774B9E;}
</style>
<g id="Page-1">
	<g id="_x30_01---Insurance-Document">
		<path id="Shape" class="st0" d="M401.1,25.6v186.5l-187.7,78l-5.7-8.3L42.7,42.7V25.6c0-9.4,7.7-17,17.1-17.1H384
			C393.4,8.6,401,16.2,401.1,25.6z"/>
		<path id="Shape_1_" class="st1" d="M375.5,25.6v186.5l-167.9,69.7L42.7,42.7V25.6c0-9.4,7.7-17,17.1-17.1h298.7
			C367.8,8.6,375.4,16.2,375.5,25.6z"/>
		<path id="Shape_2_" class="st0" d="M366.9,145.1v67.1l-1,280c-2.4,6.8-8.8,11.3-16,11.3H25.6c-9.4,0-17-7.7-17.1-17.1V59.7
			c0.1-9.1,7.3-16.6,16.4-17.1h239.6L366.9,145.1z"/>
		<path id="Shape_3_" class="st1" d="M341.3,145.1v67.1l-1,280c-2.4,6.8-8.8,11.3-16,11.3H25.6c-9.4,0-17-7.7-17.1-17.1V59.7
			c0.1-9.1,7.3-16.6,16.4-17.1h214L341.3,145.1z"/>
		<path id="Shape_4_" class="st0" d="M366.9,145.1h-85.3c-9.4,0-17.1-7.6-17.1-17.1V42.7L366.9,145.1z"/>
		<path id="Shape_5_" class="st0" d="M503.5,259.2v120.6c-0.1,25.3-12.4,49-33,63.7l-84,59.7c-1.5,1.1-3.5,1.1-4.9,0l-10.3-7.3
			l-73.6-52.4c-20.7-14.6-33-38.3-33-63.7V259.2c0-1.7,1-3.2,2.6-3.9l104.1-45l11.1-4.8c1.1-0.5,2.3-0.5,3.4,0l115.2,49.7
			C502.5,256,503.5,257.5,503.5,259.2z"/>
		<path id="Shape_6_" class="st2" d="M477.9,259.2v120.6c-0.1,25.3-12.4,49-33,63.7l-73.6,52.4l-73.6-52.4
			c-20.7-14.6-33-38.3-33-63.7V259.2c0-1.7,1-3.2,2.6-3.9l104.1-45l104.1,45C476.9,256,477.9,257.5,477.9,259.2z"/>
		<path id="Shape_7_" class="st3" d="M317.3,415.6c-11.6-8.2-18.6-21.6-18.7-35.8v-101L384,242l85.3,36.9v101
			c-0.1,14.3-7,27.6-18.7,35.8L384,463.1L317.3,415.6z"/>
		<path id="Shape_8_" class="st0" d="M317.3,415.6c-11.6-8.2-18.6-21.6-18.7-35.8v-101L384,242l85.3,36.9v101
			c-0.1,14.3-7,27.6-18.7,35.8L384,463.1L317.3,415.6z"/>
		<path id="Shape_9_" class="st2" d="M386.5,503.2l10.3-7.3l-5.3-3.8c-1.8,5-5.8,8.9-10.8,10.5l0.9,0.6
			C383,504.3,385,504.3,386.5,503.2z"/>
		<path id="Shape_10_" class="st2" d="M25.6,503.5h25.6c-9.4,0-17-7.7-17.1-17.1V59.7c0.1-9.1,7.3-16.6,16.4-17.1h17.7v-17
			c0-9.4,7.7-17,17.1-17.1H59.7c-9.4,0-17,7.7-17.1,17.1v17.1H24.9c-9.1,0.4-16.3,7.9-16.4,17.1v426.7
			C8.6,495.8,16.2,503.4,25.6,503.5z"/>
		<path id="Shape_11_" class="st0" d="M102.4,93.9H51.2c-4.7,0-8.5-3.8-8.5-8.5s3.8-8.5,8.5-8.5h51.2c4.7,0,8.5,3.8,8.5,8.5
			S107.1,93.9,102.4,93.9z"/>
		<path id="Shape_12_" class="st0" d="M221.9,93.9h-76.8c-4.7,0-8.5-3.8-8.5-8.5s3.8-8.5,8.5-8.5h76.8c4.7,0,8.5,3.8,8.5,8.5
			S226.6,93.9,221.9,93.9z"/>
		<path id="Shape_13_" class="st0" d="M324.3,187.7H51.2c-4.7,0-8.5-3.8-8.5-8.5s3.8-8.5,8.5-8.5h273.1c4.7,0,8.5,3.8,8.5,8.5
			S329,187.7,324.3,187.7z"/>
		<path id="Shape_14_" class="st0" d="M170.7,221.9H51.2c-4.7,0-8.5-3.8-8.5-8.5s3.8-8.5,8.5-8.5h119.5c4.7,0,8.5,3.8,8.5,8.5
			S175.4,221.9,170.7,221.9z"/>
		<path id="Shape_15_" class="st0" d="M324.3,221.9H204.8c-4.7,0-8.5-3.8-8.5-8.5s3.8-8.5,8.5-8.5h119.5c4.7,0,8.5,3.8,8.5,8.5
			S329,221.9,324.3,221.9z"/>
		<path id="Shape_16_" class="st0" d="M285.3,256H51.2c-4.7,0-8.5-3.8-8.5-8.5s3.8-8.5,8.5-8.5h234.1c4.7,0,8.5,3.8,8.5,8.5
			C293.8,252.2,290,256,285.3,256z"/>
		<path id="Shape_17_" class="st0" d="M170.7,290.1H51.2c-4.7,0-8.5-3.8-8.5-8.5s3.8-8.5,8.5-8.5h119.5c4.7,0,8.5,3.8,8.5,8.5
			S175.4,290.1,170.7,290.1z"/>
		<path id="Shape_18_" class="st0" d="M264.5,290.1h-59.7c-4.7,0-8.5-3.8-8.5-8.5s3.8-8.5,8.5-8.5h59.7c4.7,0,8.5,3.8,8.5,8.5
			S269.2,290.1,264.5,290.1z"/>
		<path id="Shape_19_" class="st0" d="M264.5,324.3H51.2c-4.7,0-8.5-3.8-8.5-8.5s3.8-8.5,8.5-8.5h213.3c4.7,0,8.5,3.8,8.5,8.5
			C273.1,320.4,269.2,324.3,264.5,324.3z"/>
		<path id="Shape_20_" class="st0" d="M170.7,358.4H51.2c-4.7,0-8.5-3.8-8.5-8.5s3.8-8.5,8.5-8.5h119.5c4.7,0,8.5,3.8,8.5,8.5
			S175.4,358.4,170.7,358.4z"/>
		<path id="Shape_21_" class="st0" d="M264.5,358.4h-59.7c-4.7,0-8.5-3.8-8.5-8.5s3.8-8.5,8.5-8.5h59.7c4.7,0,8.5,3.8,8.5,8.5
			C273.1,354.6,269.2,358.4,264.5,358.4z"/>
		<path id="Shape_22_" class="st0" d="M264.7,392.5H51.2c-4.7,0-8.5-3.8-8.5-8.5s3.8-8.5,8.5-8.5h213.5c4.7,0,8.5,3.8,8.5,8.5
			S269.4,392.5,264.7,392.5z"/>
		<path id="Shape_23_" class="st0" d="M309.9,460.8H51.2c-4.7,0-8.5-3.8-8.5-8.5s3.8-8.5,8.5-8.5h258.7c4.7,0,8.5,3.8,8.5,8.5
			S314.6,460.8,309.9,460.8z"/>
		<path id="Shape_24_" class="st0" d="M170.7,426.7H51.2c-4.7,0-8.5-3.8-8.5-8.5s3.8-8.5,8.5-8.5h119.5c4.7,0,8.5,3.8,8.5,8.5
			S175.4,426.7,170.7,426.7z"/>
		<path id="Shape_25_" class="st0" d="M274.7,426.7h-69.9c-4.7,0-8.5-3.8-8.5-8.5s3.8-8.5,8.5-8.5h69.9c4.7,0,8.5,3.8,8.5,8.5
			S279.4,426.7,274.7,426.7z"/>
		<polygon id="Shape_26_" class="st2" points="0,315.7 0,204.8 0,59.7 17.1,59.7 17.1,204.8 17.1,315.7 		"/>
		<path id="Shape_27_" class="st4" d="M8.5,273.1c-4.7,0-8.5,3.8-8.5,8.5v34.1h17.1v-34.1C17.1,276.9,13.2,273.1,8.5,273.1z"/>
		<path id="Shape_28_" class="st4" d="M17.1,59.7H0v153.6c0,4.7,3.8,8.5,8.5,8.5s8.5-3.8,8.5-8.5V59.7H17.1z"/>
		<path id="Shape_29_" class="st4" d="M0,247.5c0,2.3,0.9,4.4,2.5,6.1l1.3,1c0.5,0.3,1,0.6,1.5,0.8s1,0.4,1.5,0.5
			c0.6,0.1,1.1,0.2,1.7,0.2c2.3,0,4.4-0.9,6.1-2.5c0.8-0.8,1.4-1.8,1.8-2.8c1.3-3.2,0.6-6.8-1.8-9.3c-0.8-0.8-1.8-1.4-2.8-1.8
			c-1-0.4-2.1-0.7-3.2-0.7c-2.3,0-4.4,0.9-6.1,2.5C0.9,243,0,245.2,0,247.5z"/>
		<path id="Shape_30_" class="st4" d="M349.9,512H25.6C11.5,512,0,500.5,0,486.4V315.7c0-4.7,3.8-8.5,8.5-8.5s8.5,3.8,8.5,8.5v170.7
			c0,4.7,3.8,8.5,8.5,8.5h324.3c3.6,0,6.8-2.3,8-5.6c1-2.9,3.5-5,6.5-5.6s6.1,0.5,8.1,2.8s2.6,5.5,1.6,8.4
			C370.4,505.1,360.7,512,349.9,512z"/>
		<path id="Shape_31_" class="st4" d="M366.9,220.7c-4.7,0-8.5-3.8-8.5-8.5v-63.5L261,51.2H25.6c-4.7,0-8.5,3.8-8.5,8.5
			s-3.8,8.5-8.5,8.5S0,64.4,0,59.7c0-14.1,11.5-25.6,25.6-25.6h238.9c2.3,0,4.4,0.9,6,2.5L373,139c1.6,1.6,2.5,3.8,2.5,6v67.1
			C375.5,216.9,371.6,220.7,366.9,220.7z"/>
		<path id="Shape_32_" class="st4" d="M366.9,153.6h-85.3c-14.1,0-25.6-11.5-25.6-25.6V42.7c0-3.5,2.1-6.6,5.3-7.9
			c3.2-1.3,6.9-0.6,9.3,1.8L373,139c2.4,2.4,3.2,6.1,1.8,9.3C373.5,151.5,370.4,153.6,366.9,153.6z M273.1,63.3V128
			c0,4.7,3.8,8.5,8.5,8.5h64.7L273.1,63.3z"/>
		<path id="Shape_33_" class="st4" d="M366.9,153.6c-2.3,0-4.4-0.9-6-2.5L258.5,48.7c-3.2-3.3-3.2-8.7,0.1-12
			c3.3-3.3,8.6-3.3,12-0.1L373,139c2.4,2.4,3.2,6.1,1.8,9.3C373.5,151.5,370.4,153.6,366.9,153.6z"/>
		<path id="Shape_34_" class="st4" d="M401.1,220.7c-4.7,0-8.5-3.8-8.5-8.5V25.6c0-4.7-3.8-8.5-8.5-8.5H59.7c-4.7,0-8.5,3.8-8.5,8.5
			v17.1c0,4.7-3.8,8.5-8.5,8.5s-8.5-3.8-8.5-8.5V25.6C34.1,11.5,45.6,0,59.7,0H384c14.1,0,25.6,11.5,25.6,25.6v186.5
			C409.6,216.9,405.8,220.7,401.1,220.7z"/>
		<path id="Shape_35_" class="st4" d="M384,512c-3.2,0-6.3-1-8.8-2.8l-82.6-58.8c-22.9-16.2-36.5-42.5-36.6-70.6V256.4
			c0-3.4,2-6.5,5.1-7.8L380.6,197c2.2-0.9,4.6-0.9,6.8,0l119.5,51.6c3.1,1.4,5.1,4.4,5.1,7.8v123.4c-0.1,28.1-13.7,54.4-36.6,70.6
			l-82.6,58.8C390.2,511,387.1,512,384,512z M273.1,262v117.8c0.1,22.5,11,43.7,29.4,56.7l81.5,58.1l81.5-58
			c18.4-13,29.3-34.1,29.4-56.7V262.1l-110.9-48L273.1,262z"/>
		<path id="Shape_36_" class="st4" d="M384,471.6c-1.8,0-3.5-0.6-4.9-1.6l-66.7-47.5c-13.9-9.8-22.2-25.8-22.3-42.8v-101
			c0-3.4,2-6.5,5.1-7.8l85.3-36.9c2.2-0.9,4.6-0.9,6.8,0l85.3,36.9c3.1,1.4,5.1,4.4,5.1,7.8v101c-0.1,17-8.4,33-22.3,42.8L388.8,470
			C387.5,471.1,385.8,471.6,384,471.6z M322.3,408.7l61.7,43.9l61.7-43.9c9.4-6.6,15-17.4,15.1-28.9v-95.4L384,251.3l-76.8,33.2
			v95.4C307.3,391.3,312.9,402.1,322.3,408.7z"/>
		<path id="Shape_37_" class="st4" d="M366.9,401.1c-1.8,0-3.6-0.6-5.1-1.7l-34.1-25.6c-3.8-2.8-4.5-8.2-1.7-11.9s8.2-4.5,11.9-1.7
			l27.5,20.6l63.1-78.9c2.9-3.7,8.3-4.3,12-1.3s4.3,8.3,1.3,12l-68.3,85.3C372,399.9,369.5,401.1,366.9,401.1z"/>
	</g>
</g>
</svg>
