<?xml version="1.0" encoding="utf-8"?>
<!-- Generator: Adobe Illustrator 21.1.0, SVG Export Plug-In . SVG Version: 6.00 Build 0)  -->
<svg version="1.1" id="Capa_1" xmlns="http://www.w3.org/2000/svg" xmlns:xlink="http://www.w3.org/1999/xlink" x="0px" y="0px"
	 viewBox="0 0 511.7 511.7" style="enable-background:new 0 0 511.7 511.7;" xml:space="preserve">
<style type="text/css">
	.st0{fill:#DCDCDC;}
	.st1{fill:#FAFAFA;}
	.st2{fill:#FFFFFF;}
	.st3{fill:#774C9E;}
</style>
<g>
	<g transform="translate(0 -1)">
		<circle class="st0" cx="216.3" cy="206" r="195.4"/>
		<ellipse class="st1" cx="196.8" cy="206" rx="175.8" ry="195.4"/>
		<path class="st2" d="M196.8,401.4c6.5,0,13.1-0.4,19.5-1.3C128.4,389.3,60,306.6,60,206S128.4,22.8,216.3,12
			c-6.5-0.8-13-1.2-19.5-1.3C99.7,10.7,20.9,98.1,20.9,206S99.7,401.4,196.8,401.4z"/>
		<g>
			<path class="st3" d="M494.6,512.9c-2.6,0-5-1-6.8-2.9L340.6,356.9c-3.6-3.8-3.4-9.7,0.3-13.3s9.7-3.5,13.3,0.2l147.2,153.1
				c2.6,2.7,3.4,6.8,1.9,10.3C501.9,510.6,498.4,512.9,494.6,512.9z"/>
			<path class="st3" d="M216.3,411.2c-80.6,0-153.8-47.2-187-120.7S9.1,130.8,62.5,70.4c2.3-2.6,5.8-3.8,9.3-3.1
				c3.4,0.7,6.2,3.2,7.3,6.5c1.1,3.3,0.4,7-2,9.6c-62.4,70.9-61.4,177.3,2.2,247.1s169.6,80.4,245.8,24.8s98.5-159.8,51.5-241.7
				S228.6-1.9,142.1,35.9c-4.9,2.1-10.7-0.1-12.8-5.1s0.1-10.7,5-12.8c76.5-33.4,165.6-17.1,225.3,41.2s78.2,146.9,46.8,224.2
				S299.8,411.2,216.3,411.2z"/>
			<circle class="st3" cx="99.1" cy="49.8" r="9.8"/>
		</g>
	</g>
	<g>
		<circle class="st0" cx="119.9" cy="396" r="107.9"/>
		<ellipse class="st1" cx="109.7" cy="396" rx="95" ry="107.9"/>
		<path class="st2" d="M24.9,396c0-59.6,42.5-107.9,95-107.9C60.2,288,11.9,336.4,11.9,396s48.3,107.9,107.9,107.9
			C67.4,503.9,24.9,455.6,24.9,396z"/>
		<g>
			<path class="st3" d="M119.9,511.5c-62,0-112.2-50.3-112.2-112.2S57.9,287,119.9,287s112.2,50.3,112.2,112.2
				C232,461.2,181.8,511.5,119.9,511.5z M119.9,302.8c-53.3,0-96.5,43.2-96.5,96.5s43.2,96.5,96.5,96.5s96.5-43.2,96.5-96.5
				C216.3,346,173.1,302.9,119.9,302.8z"/>
			<path class="st3" d="M74.4,449.8c-2,0-3.9-1.2-4.7-3.1c-0.8-1.9-0.3-4.1,1.1-5.5l91-91c1.3-1.3,3.1-1.8,4.9-1.3
				c1.8,0.5,3.1,1.8,3.6,3.6c0.5,1.8,0,3.6-1.3,4.9l-91,91C77,449.3,75.7,449.8,74.4,449.8z"/>
			<path class="st3" d="M165.3,449.8c-1.3,0-2.6-0.5-3.6-1.5l-91-91c-1.9-2-1.9-5.2,0-7.1c2-2,5.1-2,7.1,0l91,91
				c1.4,1.4,1.9,3.6,1.1,5.5C169.2,448.6,167.4,449.8,165.3,449.8z"/>
		</g>
	</g>
</g>
</svg>
