<?xml version="1.0" encoding="utf-8"?>
<!-- Generator: Adobe Illustrator 21.1.0, SVG Export Plug-In . SVG Version: 6.00 Build 0)  -->
<svg version="1.1" id="Capa_1" xmlns="http://www.w3.org/2000/svg" xmlns:xlink="http://www.w3.org/1999/xlink" x="0px" y="0px"
	 viewBox="0 0 512 512" style="enable-background:new 0 0 512 512;" xml:space="preserve">
<style type="text/css">
	.st0{fill:#F9F9F9;}
	.st1{fill:#DCDCDC;}
	.st2{fill:#FFFFFF;}
	.st3{fill:#774B9E;}
</style>
<g>
	<g transform="translate(1 1)">
		<path class="st0" d="M451.3,212.4h-47.7l27.3-74.3c-26.5-9.8-40-39.2-30.4-65.7L224.3,7.6c-9.8,26.5-39.2,40.1-65.7,30.4
			L94.5,212.4H58.7c0,28.3-22.9,51.2-51.2,51.2v187.7c28.3,0,51.2,22.9,51.2,51.2h392.5c0-28.3,22.9-51.2,51.2-51.2V263.6
			C474.2,263.6,451.3,240.7,451.3,212.4z"/>
		<path class="st1" d="M468.3,290.7v133.6c-19.7,8.7-35.4,24.4-44.1,44.1H85.8c-8.7-19.7-24.4-35.4-44.1-44.1V290.7
			c19.7-8.7,35.4-24.4,44.1-44.1h338.4C432.9,266.3,448.6,282,468.3,290.7z"/>
		<g>
			<path class="st0" d="M442.7,290.7v133.6c-19.7,8.7-35.4,24.4-44.1,44.1H85.8c-8.7-19.7-24.4-35.4-44.1-44.1V290.7
				c19.7-8.7,35.4-24.4,44.1-44.1h312.8C407.3,266.3,423,282,442.7,290.7z"/>
			<path class="st0" d="M389.6,151.7l-11.3,30.7l-11,30H130.8L170,105.9l11.3-30.8c21.5-1.3,41.7-10.6,56.6-26.1l125.5,46.1
				C364.7,116.6,374,136.8,389.6,151.7z"/>
			<path class="st0" d="M430.9,138.1l-27.3,74.3h-36.4l11-30l11.3-30.7c-15.5-14.9-24.9-35.1-26.2-56.6L237.8,49
				c-14.9,15.5-35.1,24.8-56.6,26.1L170,105.9l-39.2,106.6H94.5l64.1-174.4c26.5,9.7,55.9-3.9,65.7-30.4l176.2,64.8
				C390.8,98.9,404.4,128.3,430.9,138.1z"/>
		</g>
		<g>
			<path class="st1" d="M502.5,263.6v187.7c-28.3,0-51.2,22.9-51.2,51.2h-25.6c0-28.3,22.9-51.2,51.2-51.2V263.6
				c-28.3,0-51.2-22.9-51.2-51.2h25.6C451.3,240.7,474.2,263.6,502.5,263.6z"/>
			<path class="st1" d="M400.5,72.4c-9.7,26.5,3.9,55.9,30.4,65.7l-27.3,74.3h-35.8l27.3-74.3c-13.3-4.9-24-15.2-29.5-28.3
				c-1.2-4.8-2-9.7-2.2-14.7l-1.5-0.6c-0.7-7.5,0.3-15,2.9-22.1l4.8-12.9"/>
		</g>
		<g>
			<path class="st2" d="M58.7,502.6h25.6c0-28.3-22.9-51.2-51.2-51.2V263.6c28.3,0,51.2-22.9,51.2-51.2H58.7
				c0,28.3-22.9,51.2-51.2,51.2v187.7C35.8,451.4,58.7,474.3,58.7,502.6z"/>
			<path class="st2" d="M183.2,40.7c-8.3,1.2-16.8,0.3-24.6-2.6L94.5,212.4h25.6L183.2,40.7z"/>
			<path class="st2" d="M246.1,15.6l-21.8-8c-5.8,15.8-19,27.7-35.3,31.9C211.2,45.2,234.5,35.5,246.1,15.6z"/>
		</g>
	</g>
	<g>
		<polygon class="st2" points="17.1,264.6 17.1,375.6 17.1,452.4 0,452.4 0,375.6 0,264.6 		"/>
		<g>
			<path class="st3" d="M8.5,341.4c2.3,0,4.4-0.9,6.1-2.5c3.3-3.4,3.3-8.8,0-12.1l-1.3-1c-0.5-0.3-1-0.6-1.5-0.8
				c-0.5-0.2-1-0.4-1.5-0.5c-0.6-0.1-1.1-0.2-1.7-0.2c-2.3,0-4.4,0.9-6.1,2.5c-3.2,3.4-3.2,8.7,0,12.1c0.8,0.8,1.8,1.4,2.8,1.8
				C6.3,341.2,7.4,341.4,8.5,341.4z"/>
			<path class="st3" d="M503.5,256.1c-23.6,0-42.6-19.1-42.7-42.7c0-4.7-3.8-8.5-8.5-8.5h-35.5l23.1-62.8c1.6-4.4-0.6-9.3-5-10.9
				c-22.1-8.2-33.4-32.6-25.3-54.8c0.8-2.1,0.7-4.5-0.3-6.5c-1-2.1-2.7-3.6-4.8-4.4L228.2,0.6c-4.4-1.6-9.3,0.6-11,5.1
				c-3.9,10.6-11.8,19.2-22.1,24s-22,5.3-32.6,1.4c-2.1-0.8-4.5-0.7-6.5,0.3c-2.1,1-3.6,2.7-4.4,4.8L89.6,205H59.7
				c-4.7,0-8.5,3.8-8.5,8.5c0,23.6-19.1,42.6-42.7,42.7c-4.7,0-8.5,3.8-8.5,8.5v34.1c0,4.7,3.8,8.5,8.5,8.5s8.5-3.8,8.5-8.5v-26.3
				c26.2-3.8,46.8-24.4,50.6-50.5h300.5l0,0l0,0h36.3l0,0l0,0h39.7c3.8,26.2,24.4,46.8,50.6,50.6v171.9
				c-26.2,3.8-46.8,24.4-50.6,50.6H67.7c-3.8-26.2-24.4-46.7-50.6-50.5v-77.5c0-4.7-3.8-8.5-8.5-8.5S0,362.3,0,367v85.3
				c0,4.7,3.8,8.5,8.5,8.5c23.6,0,42.6,19.1,42.7,42.7c0,4.7,3.8,8.5,8.5,8.5h392.5c4.7,0,8.5-3.8,8.5-8.5
				c0-23.6,19.1-42.6,42.7-42.7c4.7,0,8.5-3.8,8.5-8.5V264.6C512,259.9,508.2,256.1,503.5,256.1z M164.9,49.4
				c12.6,2.7,25.8,1.2,37.5-4.3c11.7-5.4,21.3-14.4,27.4-25.8l161.3,59.3c-5.4,25.9,6.8,52.3,30,64.9l-22.5,61.3h-18.2l18.1-49.3
				c1.2-3.2,0.4-6.8-2.1-9.1c-14-13.4-22.4-31.6-23.6-50.9c-0.2-3.4-2.4-6.3-5.6-7.5L241.8,42c-3.2-1.2-6.7-0.3-9.1,2.1
				c-13.4,14-31.6,22.4-50.9,23.5c-3.4,0.2-6.3,2.4-7.5,5.6l-48.4,131.7h-18.2L164.9,49.4z M144.1,204.9l32-87.1l8,2.9
				c2.9,1.1,6.1,0.5,8.4-1.4s3.5-5,2.9-8c-0.5-3-2.6-5.5-5.5-6.6l-8-2.9l6.5-17.7c19.6-2.3,38-10.8,52.5-24.3l115.4,42.4
				c2.3,19.7,10.9,38.1,24.3,52.6l-6.5,17.6l-8-2.9c-4.4-1.6-9.3,0.6-11,5.1c-1.6,4.4,0.6,9.3,5.1,10.9l8,2.9l-6.1,16.5L144.1,204.9
				L144.1,204.9z"/>
			<path class="st3" d="M78.9,472.9c1.4,3.1,4.4,5.1,7.8,5.1h338.5c3.4,0,6.5-2,7.8-5.1c7.8-17.8,21.9-31.9,39.7-39.7
				c3.1-1.4,5.1-4.4,5.1-7.8V291.6c0-3.4-2-6.5-5.1-7.8c-17.8-7.8-31.9-21.9-39.7-39.7c-1.4-3.1-4.4-5.1-7.8-5.1H86.7
				c-3.4,0-6.5,2-7.8,5.1c-7.7,17.8-21.9,32-39.7,39.7c-3.1,1.4-5.1,4.4-5.1,7.8v133.7c0,3.4,2,6.5,5.1,7.8
				C57,440.9,71.2,455.1,78.9,472.9z M51.2,297c17.6-9,31.9-23.3,40.9-40.9h18.8v8.5c0,4.7,3.8,8.5,8.5,8.5s8.5-3.8,8.5-8.5v-8.5
				h256v8.5c0,4.7,3.8,8.5,8.5,8.5s8.5-3.8,8.5-8.5v-8.5h18.8c9,17.6,23.3,31.9,40.9,40.9v122.9c-17.6,9-31.9,23.3-40.9,40.9h-18.8
				v-8.5c0-4.7-3.8-8.5-8.5-8.5s-8.5,3.8-8.5,8.5v8.5H128v-8.5c0-4.7-3.8-8.5-8.5-8.5s-8.5,3.8-8.5,8.5v8.5H92.1
				c-9-17.6-23.3-31.9-40.9-40.9L51.2,297L51.2,297z"/>
			<path class="st3" d="M392.5,324.4c4.7,0,8.5-3.8,8.5-8.5v-17.1c0-4.7-3.8-8.5-8.5-8.5s-8.5,3.8-8.5,8.5v17.1
				C384,320.5,387.8,324.4,392.5,324.4z"/>
			<path class="st3" d="M392.5,375.6c4.7,0,8.5-3.8,8.5-8.5V350c0-4.7-3.8-8.5-8.5-8.5s-8.5,3.8-8.5,8.5v17.1
				C384,371.7,387.8,375.6,392.5,375.6z"/>
			<path class="st3" d="M392.5,426.8c4.7,0,8.5-3.8,8.5-8.5v-17.1c0-4.7-3.8-8.5-8.5-8.5s-8.5,3.8-8.5,8.5v17.1
				C384,422.9,387.8,426.8,392.5,426.8z"/>
			<path class="st3" d="M119.5,324.4c4.7,0,8.5-3.8,8.5-8.5v-17.1c0-4.7-3.8-8.5-8.5-8.5s-8.5,3.8-8.5,8.5v17.1
				C110.9,320.5,114.8,324.4,119.5,324.4z"/>
			<path class="st3" d="M119.5,375.6c4.7,0,8.5-3.8,8.5-8.5V350c0-4.7-3.8-8.5-8.5-8.5s-8.5,3.8-8.5,8.5v17.1
				C110.9,371.7,114.8,375.6,119.5,375.6z"/>
			<path class="st3" d="M119.5,426.8c4.7,0,8.5-3.8,8.5-8.5v-17.1c0-4.7-3.8-8.5-8.5-8.5s-8.5,3.8-8.5,8.5v17.1
				C110.9,422.9,114.8,426.8,119.5,426.8z"/>
			<path class="st3" d="M238,122.4l-16-5.9c-2.9-1.1-6.1-0.5-8.4,1.5s-3.5,5-2.9,8c0.5,3,2.6,5.5,5.5,6.6l16,5.9
				c2.9,1.1,6.1,0.5,8.4-1.4c2.3-2,3.5-5,2.9-8C243,126,240.9,123.5,238,122.4L238,122.4z"/>
			<path class="st3" d="M286.1,140.1l-16-5.9c-4.4-1.6-9.3,0.6-11,5.1s0.6,9.3,5.1,10.9l16,5.9c4.4,1.6,9.3-0.6,11-5.1
				C292.8,146.6,290.5,141.7,286.1,140.1L286.1,140.1z"/>
			<path class="st3" d="M334.1,157.7l-16-5.9c-4.4-1.6-9.3,0.6-11,5.1c-1.6,4.4,0.6,9.3,5.1,10.9l16,5.9c4.4,1.6,9.3-0.6,11-5.1
				C340.8,164.2,338.6,159.3,334.1,157.7L334.1,157.7z"/>
		</g>
	</g>
</g>
</svg>
